<?xml version="1.0" encoding="UTF-8"?>
<svg version="1.1" xmlns="http://www.w3.org/2000/svg" width="1024" height="1024">
<path d="M0 0 C27.69419199 -1.00196064 54.56981827 8.56895689 75.01171875 27.21484375 C75.77742187 27.89933594 76.543125 28.58382813 77.33203125 29.2890625 C89.62341733 40.87380095 98.86176726 56.15911264 104.01171875 72.21484375 C104.01171875 73.20484375 104.01171875 74.19484375 104.01171875 75.21484375 C104.67171875 75.54484375 105.33171875 75.87484375 106.01171875 76.21484375 C112.68120318 100.99897723 107.75258401 129.75492102 95.44921875 151.83984375 C93.08454462 155.92601919 90.57603445 159.90876142 88.00390625 163.8671875 C76.44655598 181.66540005 71.746605 196.77837928 71.98828125 217.94921875 C72.07949931 230.65893494 72.07949931 230.65893494 68.82421875 235.40234375 C65.45097673 237.57621083 63.94809425 237.95291416 60.01171875 237.21484375 C57.31181213 235.41490601 55.46983225 234.13107075 54.01171875 231.21484375 C53.91343577 228.87403991 53.88093583 226.53036535 53.87890625 224.1875 C53.87794952 223.48394882 53.8769928 222.78039764 53.87600708 222.05552673 C53.87532555 220.56004752 53.87717797 219.06456536 53.88134766 217.5690918 C53.8866247 215.31747459 53.88143954 213.06606351 53.875 210.81445312 C53.87171012 202.9032781 54.07827837 195.08104578 55.01171875 187.21484375 C55.67171875 187.21484375 56.33171875 187.21484375 57.01171875 187.21484375 C57.19734375 185.69890625 57.19734375 185.69890625 57.38671875 184.15234375 C57.98585813 180.37776565 58.93492639 176.87593778 60.01171875 173.21484375 C60.01171875 172.55484375 60.01171875 171.89484375 60.01171875 171.21484375 C61.00171875 171.21484375 61.99171875 171.21484375 63.01171875 171.21484375 C63.27726563 170.32925781 63.5428125 169.44367188 63.81640625 168.53125 C64.96276904 165.3506552 66.27298865 162.95660741 68.13671875 160.15234375 C68.75417969 159.20488281 69.37164062 158.25742187 70.0078125 157.28125 C70.66910156 156.26933594 71.33039063 155.25742187 72.01171875 154.21484375 C86.38099415 131.71100648 93.30867245 107.94079923 87.51171875 81.21484375 C87.03660013 79.20878735 86.5476678 77.20551163 86.01171875 75.21484375 C85.02171875 74.88484375 84.03171875 74.55484375 83.01171875 74.21484375 C83.67171875 74.21484375 84.33171875 74.21484375 85.01171875 74.21484375 C79.48333363 62.32659039 79.48333363 62.32659039 72.04296875 51.59765625 C71.01171875 50.21484375 71.01171875 50.21484375 71.01171875 48.21484375 C70.35171875 48.21484375 69.69171875 48.21484375 69.01171875 48.21484375 C68.03020073 47.1064834 67.10243973 45.95038771 66.19921875 44.77734375 C52.7671991 29.10203834 30.93976525 21.54014471 11.01171875 19.21484375 C-12.69045828 17.58060219 -36.457791 23.36962536 -55.015625 38.71875 C-72.19253205 53.68391031 -81.70138469 70.53166814 -84.99902344 93.0065918 C-87.49719011 109.86586812 -92.59075514 123.37832435 -100.92260742 138.27050781 C-101.27427979 138.91213867 -101.62595215 139.55376953 -101.98828125 140.21484375 C-102.37153564 140.90030273 -102.75479004 141.58576172 -103.1496582 142.29199219 C-104.28252719 144.88951072 -103.73075167 146.54195025 -102.98828125 149.21484375 C-101.79332031 149.56095703 -101.79332031 149.56095703 -100.57421875 149.9140625 C-87.85454241 153.82899938 -87.85454241 153.82899938 -83.85913086 159.94262695 C-82.67077624 163.04327637 -82.71318958 165.75316854 -82.6796875 169.0703125 C-82.65450728 170.42904037 -82.62910958 171.78776423 -82.60351562 173.14648438 C-82.57493599 175.26797238 -82.55089673 177.38939002 -82.53198242 179.51098633 C-82.74905861 191.29329839 -82.74905861 191.29329839 -78.98828125 202.21484375 C-75.27929546 204.76803643 -70.88982918 204.60283076 -66.48828125 204.77734375 C-65.39906372 204.83365967 -65.39906372 204.83365967 -64.2878418 204.89111328 C-59.9978553 205.10699006 -55.7073435 205.2578737 -51.4140625 205.390625 C-50.48078125 205.42406006 -49.5475 205.45749512 -48.5859375 205.49194336 C-46.76471716 205.55596066 -44.9430284 205.60805224 -43.12109375 205.64672852 C-36.52808939 205.88336487 -32.24017865 207.1676643 -27.23828125 211.71484375 C-21.83087225 218.9479053 -22.78037166 228.99237196 -22.67578125 237.58984375 C-22.64907349 239.03520508 -22.64907349 239.03520508 -22.62182617 240.50976562 C-22.63178659 249.26880084 -22.63178659 249.26880084 -25.98828125 253.21484375 C-29.50652636 255.56034049 -30.84603819 255.79475778 -34.98828125 255.21484375 C-37.56113849 253.04220875 -39.47825044 251.23490537 -40.98828125 248.21484375 C-41.07319625 246.32845255 -41.09547425 244.4390586 -41.0859375 242.55078125 C-41.08110352 240.86855469 -41.08110352 240.86855469 -41.07617188 239.15234375 C-41.06360352 237.38890625 -41.06360352 237.38890625 -41.05078125 235.58984375 C-41.04626953 234.40648437 -41.04175781 233.223125 -41.03710938 232.00390625 C-41.02529592 229.07416868 -41.00882383 226.14453103 -40.98828125 223.21484375 C-41.66181641 223.22531738 -42.33535156 223.23579102 -43.02929688 223.24658203 C-82.03058142 223.77165045 -82.03058142 223.77165045 -91.98828125 215.21484375 C-100.42871809 206.66846 -100.30078141 196.82306797 -100.55078125 185.40234375 C-100.61063099 182.97906583 -100.67425111 180.5558772 -100.7421875 178.1328125 C-100.76611572 177.06828857 -100.79004395 176.00376465 -100.81469727 174.90698242 C-100.88001097 172.11543806 -100.88001097 172.11543806 -101.98828125 169.21484375 C-104.84898091 167.65311638 -107.73163847 166.31258651 -110.70898438 164.99609375 C-116.60451748 162.24938158 -120.13318167 158.37928045 -122.50390625 152.28125 C-124.70337497 142.89803266 -120.37642069 135.19071093 -115.98828125 127.21484375 C-114.56763988 124.5189004 -113.18186194 121.8062146 -111.80078125 119.08984375 C-111.46812256 118.45731689 -111.13546387 117.82479004 -110.79272461 117.1730957 C-106.28619664 108.35125322 -104.53595622 99.25834664 -103.11328125 89.52734375 C-98.55036251 60.59116668 -84.10787609 37.2850234 -60.48828125 19.77734375 C-41.93298169 7.16200289 -22.12291847 1.59053662 0 0 Z " fill="#347CE3" transform="translate(200.98828125,356.78515625)"/>
<path d="M0 0 C7.92 0 15.84 0 24 0 C24.33 18.81 24.66 37.62 25 57 C30.01438081 51.84825276 30.01438081 51.84825276 34 46 C34.66 46 35.32 46 36 46 C36.38478516 45.12021484 36.38478516 45.12021484 36.77734375 44.22265625 C38.11173896 41.79687071 39.54485328 40.32471299 41.5625 38.4375 C44.82047175 35.27396222 47.72081686 31.97987213 50.5625 28.4375 C53.58949681 24.66539628 56.70118568 21.2318817 60.1796875 17.8828125 C63.28583641 14.6700147 66.0128842 11.14622172 68.7890625 7.6484375 C75.03202169 0.17012243 75.03202169 0.17012243 79.22973633 -0.56762695 C81.01287231 -0.52835083 81.01287231 -0.52835083 82.83203125 -0.48828125 C84.12431641 -0.47216797 85.41660156 -0.45605469 86.74804688 -0.43945312 C88.10288157 -0.39768274 89.45769928 -0.35535809 90.8125 -0.3125 C92.18680866 -0.28740069 93.56116116 -0.26459036 94.93554688 -0.24414062 C98.29147976 -0.18526461 101.6451809 -0.1030642 105 0 C103.4150031 4.29945482 101.65641044 6.64269822 98.3125 9.8125 C95.22129245 12.80627694 92.22850866 15.78666823 89.4375 19.0625 C86.21169721 22.83479173 82.72727808 26.28936298 79.1953125 29.7734375 C76.55993257 32.44633174 74.12233511 35.25368303 71.6796875 38.1015625 C69.48687425 40.57995143 67.13760798 42.87395861 64.77734375 45.19140625 C61.69846012 48.3244241 58.85269265 51.66174265 56 55 C57.48033608 59.25893481 59.71401824 62.73200433 62.3125 66.375 C62.91372681 67.23218628 62.91372681 67.23218628 63.52709961 68.10668945 C65.67221792 71.15844018 67.85803593 74.17853323 70.0625 77.1875 C72 80 72 80 72 82 C73.485 82.495 73.485 82.495 75 83 C75.69485007 84.65511498 76.35530316 86.3247125 77 88 C78.43835206 90.15330593 79.89861046 92.23450903 81.4375 94.3125 C82.33985636 95.55242972 83.24084551 96.79335531 84.140625 98.03515625 C84.60919922 98.6811377 85.07777344 99.32711914 85.56054688 99.99267578 C87.98722819 103.3766944 90.33703933 106.81279789 92.6875 110.25 C96.7559582 116.19209027 100.85309016 122.11223723 105 128 C104.67 128.66 104.34 129.32 104 130 C99.93787788 130.14547545 95.87642713 130.23413226 91.8125 130.3125 C90.08676758 130.3753418 90.08676758 130.3753418 88.32617188 130.43945312 C79.81206116 130.56284603 79.81206116 130.56284603 75.99609375 127.91796875 C75.33738281 126.95503906 74.67867188 125.99210938 74 125 C73.61884033 124.46930908 73.23768066 123.93861816 72.8449707 123.3918457 C71.59568073 121.62389652 70.41971271 119.82146362 69.25 118 C68.37341667 116.65948815 67.49579259 115.31965636 66.6171875 113.98046875 C66.17987305 113.31192871 65.74255859 112.64338867 65.29199219 111.95458984 C63.36587123 109.04065856 61.37279292 106.17784659 59.375 103.3125 C55.82324455 98.20997808 52.35906014 93.05647045 48.9296875 87.87109375 C46.44746746 84.17791211 43.86157826 80.56351644 41.25 76.9609375 C40 75 40 75 40 73 C38.8095016 74.017335 37.6228126 75.03912764 36.4375 76.0625 C35.77621094 76.63097656 35.11492187 77.19945312 34.43359375 77.78515625 C33.63050781 78.51605469 32.82742188 79.24695313 32 80 C31.42672974 80.46216919 30.85345947 80.92433838 30.26281738 81.4005127 C26.67423236 84.53041881 24.58007161 86.80706515 24.11352539 91.65014648 C24.07316885 93.3900023 24.0695503 95.13099692 24.09765625 96.87109375 C24.07921913 98.25458763 24.07921913 98.25458763 24.06040955 99.66603088 C24.02880242 102.59067469 24.04492037 105.51277994 24.0625 108.4375 C24.04938378 110.42905978 24.03314032 112.42060157 24.01367188 114.41210938 C23.96707644 119.27626715 23.98511956 124.13409661 24 129 C15.75 129 7.5 129 -1 129 C-1.02254688 112.32814247 -1.04097909 95.65629789 -1.05181217 78.98442936 C-1.05697517 71.24392718 -1.06401793 63.50343513 -1.07543945 55.76293945 C-1.08538619 49.01872849 -1.0918534 42.27452485 -1.09408849 35.53030676 C-1.09539562 31.95713134 -1.09848158 28.3839769 -1.10573006 24.81080818 C-1.11374372 20.82837649 -1.11399114 16.84596559 -1.11352539 12.86352539 C-1.11712067 11.67022614 -1.12071594 10.47692688 -1.12442017 9.24746704 C-1.1230455 8.16908066 -1.12167084 7.09069427 -1.12025452 5.97962952 C-1.12117631 5.03663529 -1.1220981 4.09364107 -1.12304783 3.12207127 C-1 1 -1 1 0 0 Z " fill="#357FEB" transform="translate(368,414)"/>
<path d="M0 0 C3.46162481 4.21008423 4.90570143 7.53068301 5 13 C3.74462607 18.72139445 1.05151454 22.84460047 -3 27 C-3.66 27 -4.32 27 -5 27 C-5.08710289 30.10398978 -5.14042309 33.20766548 -5.1875 36.3125 C-5.21263672 37.19357422 -5.23777344 38.07464844 -5.26367188 38.98242188 C-5.27333984 39.82998047 -5.28300781 40.67753906 -5.29296875 41.55078125 C-5.3086792 42.33106689 -5.32438965 43.11135254 -5.34057617 43.9152832 C-4.9087812 46.55836367 -4.09972731 47.38428179 -2 49 C0.83588048 50.28531132 0.83588048 50.28531132 2.98950195 49.30322266 C4.10264771 48.73933838 4.10264771 48.73933838 5.23828125 48.1640625 C6.05876953 47.75929688 6.87925781 47.35453125 7.72460938 46.9375 C8.57861328 46.504375 9.43261719 46.07125 10.3125 45.625 C20.89904204 40.27907977 20.89904204 40.27907977 26 40 C28.8125 41.125 28.8125 41.125 31 43 C32.01345044 45.63497114 32.22117161 47.17778189 31.48828125 49.90234375 C29.14908467 53.19932161 25.84550676 54.43034359 22.25 56.125 C21.54617187 56.47175781 20.84234375 56.81851563 20.1171875 57.17578125 C16.15344768 59.09871079 12.22404926 60.71153214 8 62 C8.061875 63.155 8.12375 64.31 8.1875 65.5 C8.16064749 73.09925945 5.2317272 78.6406697 0 84 C-1.11375 84.4640625 -1.11375 84.4640625 -2.25 84.9375 C-2.8275 85.288125 -3.405 85.63875 -4 86 C-4.7614808 89.1630741 -5.32314845 91.75249667 -4.49609375 94.9453125 C-3.93589901 97.26548915 -4.07123857 99.12734825 -4.25 101.5 C-4.34375584 103.85045839 -4.34375584 103.85045839 -4 106 C-1.75503458 108.3293081 -1.75503458 108.3293081 1 110 C4.64526542 114.39945826 4.31994393 118.56095318 4 124 C4.66 124.33 5.32 124.66 6 125 C5.34 125 4.68 125 4 125 C3.79375 125.886875 3.5875 126.77375 3.375 127.6875 C1.59133836 131.98450304 -0.23852818 133.31323442 -4 136 C-9.43617053 137.81205684 -14.98215186 137.7099836 -20.375 135.8125 C-24.25350945 133.13448157 -26.50791589 130.47625233 -28 126 C-28.85041053 119.84059801 -27.89041903 115.84007101 -24.38671875 110.7265625 C-23 109 -23 109 -21.375 107.52734375 C-19.65265876 105.61417493 -19.52027705 104.48161455 -19.3125 101.9375 C-19.24804688 101.15375 -19.18359375 100.37 -19.1171875 99.5625 C-18.92558506 95.37279334 -18.92122341 91.19266539 -19 87 C-22.67825235 85.35268453 -24.5847823 84.91115429 -28.578125 85.765625 C-35.48933136 88.1916139 -35.48933136 88.1916139 -40.140625 93.38671875 C-40.53128383 95.93755955 -40.53128383 95.93755955 -40.67578125 98.52734375 C-41.23383371 102.7833342 -43.70008002 105.40990263 -47 108 C-51.33715706 109.78133236 -55.34332244 110.66523965 -60 110 C-65.4554456 107.53180811 -69.32413213 104.45877045 -72 99 C-72.57154578 96.2985913 -72.80909631 93.76810355 -73 91 C-72.34 91 -71.68 91 -71 91 C-70.9175 90.278125 -70.835 89.55625 -70.75 88.8125 C-69.79827885 85.24354568 -68.65266823 83.5846511 -66 81 C-60.74994774 78.13633513 -57.42386888 77.89666537 -51.5 78.5625 C-45.24912527 79.24494161 -42.22120025 78.44796243 -37 75 C-36.34 74.34 -35.68 73.68 -35 73 C-34.34 72.67 -33.68 72.34 -33 72 C-33 68.7 -33 65.4 -33 62 C-35.53241602 60.62551767 -38.0735432 59.27578601 -40.625 57.9375 C-41.33785156 57.54755859 -42.05070312 57.15761719 -42.78515625 56.75585938 C-47.24827093 54.44241002 -49.97081405 53.43687464 -55 55 C-55.99 55.495 -55.99 55.495 -57 56 C-63.82092329 56.77337606 -69.37843907 56.08500094 -75 52 C-78.59703935 48.57296997 -80.82283737 45.36103278 -81.203125 40.29296875 C-81.36514374 29.55922701 -81.36514374 29.55922701 -78 25 C-73.18089711 20.07380594 -68.79195551 17.06226787 -61.8125 16.5 C-55.90443645 16.64819557 -51.50722915 19.34395621 -47 23 C-43.4909139 26.79535365 -42.9375 29.998714 -42.9375 35.0625 C-42.89102671 37.64269617 -42.89102671 37.64269617 -42 40 C-38.66306508 42.75532126 -34.95601116 44.30682723 -31 46 C-29.51685114 46.80520788 -28.03709615 47.61673422 -26.5625 48.4375 C-22.92703343 50.03200288 -22.47017445 50.16689383 -19 49 C-19.01160156 47.73542969 -19.02320313 46.47085938 -19.03515625 45.16796875 C-19.04453566 43.50781398 -19.0536357 41.84765761 -19.0625 40.1875 C-19.07087891 39.35412109 -19.07925781 38.52074219 -19.08789062 37.66210938 C-19.09111328 36.85966797 -19.09433594 36.05722656 -19.09765625 35.23046875 C-19.10289307 34.49207764 -19.10812988 33.75368652 -19.11352539 32.99291992 C-19 31 -19 31 -18 28 C-18.99 27.67 -19.98 27.34 -21 27 C-22.5703125 25.22265625 -22.5703125 25.22265625 -24.125 23.0625 C-24.90230469 21.99708984 -24.90230469 21.99708984 -25.6953125 20.91015625 C-28.57366384 16.69604306 -28.44739143 12.9888365 -28 8 C-26.17918977 2.53756931 -22.67523774 -0.82083833 -18 -4 C-11.41191779 -6.47053083 -5.23522271 -4.30451645 0 0 Z M-15.8125 8.1875 C-17.2888365 10.01846177 -17.2888365 10.01846177 -16.6875 12.6875 C-16.460625 13.450625 -16.23375 14.21375 -16 15 C-13.08517222 15.80967438 -11.53886783 16.21845993 -8.6875 15.0625 C-8.130625 14.711875 -7.57375 14.36125 -7 14 C-6.74969023 11.58380177 -6.74969023 11.58380177 -7 9 C-10.24206161 6.83862559 -12.33198311 5.90716135 -15.8125 8.1875 Z M-68 32 C-69.36997745 33.15745487 -69.36997745 33.15745487 -69.3125 36.3125 C-69.30090201 39.97331062 -69.30090201 39.97331062 -67.375 42.4375 C-64.28314769 44.47161336 -62.63632575 44.60605429 -59 44 C-56.26977923 42.00767674 -55.20912282 40.6595412 -54.1875 37.4375 C-53.83073035 34.8610473 -53.83073035 34.8610473 -55 32 C-60.25746041 28.26443602 -62.7047058 28.51625381 -68 32 Z M-18 64 C-19.25153259 66.34095531 -19.25153259 66.34095531 -19 69 C-17.5714939 71.9315113 -17.5714939 71.9315113 -15 74 C-11.7911929 74.52388687 -9.9699825 74.54965675 -7.125 72.9375 C-5.33764697 69.85928089 -5.56613258 67.47093932 -6 64 C-7.69164222 61.95970404 -7.69164222 61.95970404 -10 61 C-13.66842255 61 -15.10451959 61.79029126 -18 64 Z M-61 92 C-60.67801034 95.09926819 -60.67801034 95.09926819 -60 98 C-57.70705512 98.85974801 -57.70705512 98.85974801 -55 99 C-52.66545339 97.16641665 -52.66545339 97.16641665 -51 95 C-51.66 93.35 -52.32 91.7 -53 90 C-57.49304582 89.57496554 -57.49304582 89.57496554 -61 92 Z M-15.125 117.6875 C-17.33477231 119.86333117 -17.33477231 119.86333117 -16.75 122.75 C-16.5025 123.4925 -16.255 124.235 -16 125 C-13.14221967 125.68493373 -13.14221967 125.68493373 -10 126 C-6.7756937 124.35862883 -6.7756937 124.35862883 -6.5 121.5625 C-6.74777151 118.76276391 -6.74777151 118.76276391 -9.4375 117.1875 C-12.51742276 115.53679327 -12.51742276 115.53679327 -15.125 117.6875 Z " fill="#3580E9" transform="translate(225,404)"/>
<path d="M0 0 C9.92472257 -0.51621879 22.46055601 1.92623503 30.0390625 8.63671875 C30.83183594 9.43722656 30.83183594 9.43722656 31.640625 10.25390625 C32.18976563 10.76695312 32.73890625 11.28 33.3046875 11.80859375 C42.19073761 20.95728573 42.24343136 32.89181361 42.25 44.859375 C42.26501127 46.43550795 42.2817445 48.01162534 42.30010986 49.58772278 C42.3434657 53.69919632 42.36371113 57.81045782 42.37884521 61.92211914 C42.39853205 66.13245012 42.44048829 70.34255586 42.48046875 74.55273438 C42.55542614 82.78642646 42.60386204 91.01995497 42.640625 99.25390625 C35.710625 99.25390625 28.780625 99.25390625 21.640625 99.25390625 C20.650625 96.94390625 19.660625 94.63390625 18.640625 92.25390625 C18.310625 92.91390625 17.980625 93.57390625 17.640625 94.25390625 C16.00111151 94.98480824 14.32795347 95.64141555 12.640625 96.25390625 C11.78984375 96.59550781 10.9390625 96.93710937 10.0625 97.2890625 C-1.23525355 101.63308177 -9.63099819 101.95974753 -21.359375 98.25390625 C-29.63915179 94.48708919 -34.19704333 88.2665842 -37.734375 80.06640625 C-39.3137575 70.43217301 -39.61649344 60.79301106 -34.359375 52.25390625 C-27.59777359 43.42020118 -18.23600684 38.79482027 -7.359375 37.25390625 C-2.83417966 37.02948173 1.67387471 37.06373718 6.203125 37.12890625 C7.40259766 37.13792969 8.60207031 37.14695312 9.83789062 37.15625 C12.77234809 37.17963213 15.70637734 37.21240345 18.640625 37.25390625 C18.35037052 35.81375399 18.0519015 34.37525578 17.75 32.9375 C17.5020166 31.73565063 17.5020166 31.73565063 17.24902344 30.50952148 C16.38257877 27.29720916 15.08321038 25.49294285 12.640625 23.25390625 C7.06506028 20.65197605 2.00847267 20.96813153 -3.984375 21.69140625 C-8.88870255 23.96192827 -10.12310886 27.5318732 -12.359375 32.25390625 C-13.94875056 33.84328181 -15.59837346 33.38371768 -17.796875 33.38671875 C-19.13878906 33.38865234 -19.13878906 33.38865234 -20.5078125 33.390625 C-21.44882812 33.38675781 -22.38984375 33.38289063 -23.359375 33.37890625 C-24.77089844 33.38470703 -24.77089844 33.38470703 -26.2109375 33.390625 C-27.10554687 33.38933594 -28.00015625 33.38804687 -28.921875 33.38671875 C-29.74816406 33.38559082 -30.57445312 33.38446289 -31.42578125 33.38330078 C-33.359375 33.25390625 -33.359375 33.25390625 -34.359375 32.25390625 C-34.9222398 25.35881248 -33.5298963 20.19287297 -29.47265625 14.69921875 C-20.93348454 4.65488763 -12.87174323 1.38520416 0 0 Z M-13.359375 60.25390625 C-15.78504184 64.11292168 -15.57508991 67.71818736 -14.9765625 72.09765625 C-14.01523431 75.45622054 -12.05552852 77.14959131 -9.359375 79.25390625 C-4.46861978 81.69928386 2.94895176 81.00159326 8.1015625 79.5703125 C12.58301896 77.50128758 16.19410506 74.62884567 18.640625 70.25390625 C19.21492517 67.26009421 19.12024428 64.41276395 18.953125 61.37890625 C18.91928711 60.20328125 18.91928711 60.20328125 18.88476562 59.00390625 C18.82630518 57.08640365 18.73663783 55.16989565 18.640625 53.25390625 C15.64006416 53.17223776 12.6417711 53.11309074 9.640625 53.06640625 C8.38185547 53.02870117 8.38185547 53.02870117 7.09765625 52.99023438 C-0.78190869 52.89861153 -7.58179375 54.476325 -13.359375 60.25390625 Z " fill="#347EE7" transform="translate(710.359375,444.74609375)"/>
<path d="M0 0 C6.63714445 5.70151175 10.67774067 14.36192751 11.49584961 23.02197266 C11.77685921 27.59572284 11.79781197 32.16906198 11.8125 36.75 C11.83526787 38.41490323 11.85995323 40.07978124 11.88647461 41.74462891 C11.95883095 46.82974781 11.98269966 51.91444263 12 57 C12.00822967 58.62923297 12.01668914 60.2584648 12.02539062 61.88769531 C12.06922107 70.92568428 12.05609771 79.96203591 12 89 C4.74 89 -2.52 89 -10 89 C-10.66 87.02 -11.32 85.04 -12 83 C-12.969375 83.763125 -13.93875 84.52625 -14.9375 85.3125 C-22.59207828 90.73833561 -31.97470405 92.81305198 -41.2421875 91.5625 C-50.32542272 89.71648453 -57.82075563 86.60633123 -63.67578125 79.1953125 C-68.98330546 70.39640807 -69.9883816 60.94190801 -68 51 C-65.806092 43.23875556 -61.43683173 37.53053792 -54.41796875 33.52734375 C-44.55453269 28.79565345 -35.28610876 27.6888838 -24.4375 27.375 C-22.78137695 27.31699219 -22.78137695 27.31699219 -21.09179688 27.2578125 C-18.39468875 27.16440616 -15.6975723 27.07863524 -13 27 C-12.73439144 21.53379085 -12.73439144 21.53379085 -15.125 16.6875 C-18.95516987 13.10712382 -21.43591403 12.02608808 -26.6875 11.97265625 C-32.53150745 12.26121232 -32.53150745 12.26121232 -37.625 14.875 C-39.15292014 17.04229706 -39.15292014 17.04229706 -40 20 C-41.48498029 22.52446649 -42.28197313 23.7839332 -45.12890625 24.640625 C-48.72377526 25.090595 -52.07525938 24.88680784 -55.6875 24.625 C-56.36361328 24.58117187 -57.03972656 24.53734375 -57.73632812 24.4921875 C-62.73132622 24.13433689 -62.73132622 24.13433689 -65 23 C-64.77397443 13.15761378 -61.97028959 6.56662485 -54.875 -0.3125 C-39.68086898 -13.04614569 -15.30200322 -11.74080974 0 0 Z M-12 27 C-11 29 -11 29 -11 29 Z M-44 52 C-45.86356079 55.72712158 -45.56549975 59.9420732 -45 64 C-43.1258346 67.62531608 -40.92635083 69.69121639 -37 71 C-27.6034858 71.84916647 -21.71448025 70.59717568 -14.296875 64.9375 C-11.08927466 60.83526283 -11.42870958 57.73192256 -11.6875 52.6875 C-11.72133789 51.43356445 -11.72133789 51.43356445 -11.75585938 50.15429688 C-11.8144939 48.10208851 -11.90416785 46.05080798 -12 44 C-15.02138567 43.91850408 -18.04053905 43.85926579 -21.0625 43.8125 C-22.33383789 43.77479492 -22.33383789 43.77479492 -23.63085938 43.73632812 C-32.26140455 43.63636042 -37.68782478 46.13869444 -44 52 Z " fill="#357FE9" transform="translate(549,454)"/>
<path d="M0 0 C10.41362693 -0.47967672 23.14235001 1.48166923 31.15234375 8.57421875 C31.94511719 9.37472656 31.94511719 9.37472656 32.75390625 10.19140625 C33.30304688 10.70445312 33.8521875 11.2175 34.41796875 11.74609375 C42.56696981 20.13595199 43.34549102 30.89846232 43.328125 42.0390625 C43.34977236 44.01432843 43.37142314 45.98959432 43.39326954 47.96485806 C43.41863611 50.70240974 43.42609188 53.43990196 43.43383789 56.17755127 C43.45131661 60.97278088 43.49858507 65.76781825 43.54389954 70.56285095 C43.56613998 73.1060654 43.58210752 75.64934519 43.59074402 78.19264221 C43.63136065 84.91921642 43.92158686 91.51415067 44.75390625 98.19140625 C40.725573 99.31463249 36.84684786 99.33884788 32.69140625 99.31640625 C31.97146484 99.32027344 31.25152344 99.32414063 30.50976562 99.328125 C27.32681986 99.32221424 24.79442763 99.20491338 21.75390625 98.19140625 C21.75390625 96.87140625 21.75390625 95.55140625 21.75390625 94.19140625 C20.76390625 93.69640625 20.76390625 93.69640625 19.75390625 93.19140625 C20.08390625 92.53140625 20.41390625 91.87140625 20.75390625 91.19140625 C20.02945313 91.67351562 19.305 92.155625 18.55859375 92.65234375 C17.59179688 93.28398438 16.625 93.915625 15.62890625 94.56640625 C14.67757812 95.19289063 13.72625 95.819375 12.74609375 96.46484375 C7.20329065 99.66317139 2.28322564 100.55670446 -4.05859375 100.50390625 C-4.76564453 100.4982666 -5.47269531 100.49262695 -6.20117188 100.48681641 C-16.98301276 100.23682423 -23.86846427 96.41965714 -31.49609375 89.00390625 C-35.90243227 81.92229077 -38.20060004 74.51350797 -37.24609375 66.19140625 C-37.16359375 65.45148438 -37.08109375 64.7115625 -36.99609375 63.94921875 C-35.49732222 54.92536519 -30.46381564 48.55361485 -23.17578125 43.28515625 C-21.24609375 42.19140625 -21.24609375 42.19140625 -19.06640625 41.66015625 C-18.46570313 41.50546875 -17.865 41.35078125 -17.24609375 41.19140625 C-16.91609375 40.53140625 -16.58609375 39.87140625 -16.24609375 39.19140625 C-9.78602098 37.12795921 -2.72748666 36.91293545 4.00390625 36.50390625 C4.75986084 36.45548584 5.51581543 36.40706543 6.29467773 36.35717773 C10.94165602 36.11700142 15.16970253 36.38492597 19.75390625 37.19140625 C19.04093709 29.86852996 19.04093709 29.86852996 14.87890625 24.12890625 C9.92915791 21.06006228 5.57807922 20.56297911 -0.24609375 21.19140625 C-4.43419792 22.77182292 -6.96784611 24.31838527 -9.24609375 28.19140625 C-9.92633628 29.85257822 -10.59468367 31.51871766 -11.24609375 33.19140625 C-14.68357605 33.22042019 -18.12102687 33.2382096 -21.55859375 33.25390625 C-22.53505859 33.26228516 -23.51152344 33.27066406 -24.51757812 33.27929688 C-25.45537109 33.28251953 -26.39316406 33.28574219 -27.359375 33.2890625 C-28.22344971 33.29429932 -29.08752441 33.29953613 -29.9777832 33.30493164 C-32.24609375 33.19140625 -32.24609375 33.19140625 -35.24609375 32.19140625 C-32.30960589 20.7558153 -28.14694628 12.11573666 -18.24609375 5.19140625 C-12.34122891 2.11447367 -6.60916786 0.56321604 0 0 Z M-8.24609375 57.19140625 C-11.26775979 59.83536404 -13.01063343 61.62497552 -13.6171875 65.66015625 C-13.72664608 70.03849961 -13.60180355 73.39928803 -11.24609375 77.19140625 C-5.84512589 81.17106678 0.33494627 80.94211248 6.75390625 80.19140625 C12.37251033 78.55841295 16.85492807 75.38672272 19.75390625 70.19140625 C20.32786793 67.1975265 20.23352634 64.35027872 20.06640625 61.31640625 C20.03256836 60.14078125 20.03256836 60.14078125 19.99804688 58.94140625 C19.93958643 57.02390365 19.84991908 55.10739565 19.75390625 53.19140625 C10.23008091 51.61811354 -0.13282499 51.24040016 -8.24609375 57.19140625 Z " fill="#347EE6" transform="translate(852.24609375,444.80859375)"/>
<path d="M0 0 C6.26496966 6.26496966 8.13211617 12.17010293 8.8125 20.8125 C8.24740723 20.8626123 7.68231445 20.91272461 7.10009766 20.96435547 C4.54496147 21.19616272 1.99132238 21.4416579 -0.5625 21.6875 C-1.45195313 21.76613281 -2.34140625 21.84476562 -3.2578125 21.92578125 C-4.53398438 22.05146484 -4.53398438 22.05146484 -5.8359375 22.1796875 C-7.01422119 22.28966064 -7.01422119 22.28966064 -8.21630859 22.40185547 C-10.41170226 22.67134591 -10.41170226 22.67134591 -12.1875 24.8125 C-12.55101562 24.12542969 -12.91453125 23.43835938 -13.2890625 22.73046875 C-17.17628523 15.52688996 -17.17628523 15.52688996 -24.1875 11.8125 C-30.39843346 10.61769356 -35.24560132 10.61658092 -41.1875 12.8125 C-40.8575 13.4725 -40.5275 14.1325 -40.1875 14.8125 C-41.1775 15.4725 -42.1675 16.1325 -43.1875 16.8125 C-43.93835106 19.22513295 -43.93835106 19.22513295 -43.1875 21.8125 C-37.02539348 27.26483509 -28.84114998 27.8677619 -21.015625 29.43554688 C-9.24767532 31.93487415 -0.19533032 35.53724256 6.5625 45.875 C10.46909178 52.11812927 10.45206119 58.59967108 9.8125 65.8125 C7.43382954 75.06863071 2.37204543 81.46686491 -5.70703125 86.48828125 C-19.37056792 93.78267327 -37.48570454 91.81724652 -52.1875 88.8125 C-52.1875 88.1525 -52.1875 87.4925 -52.1875 86.8125 C-53.0125 86.6475 -53.8375 86.4825 -54.6875 86.3125 C-61.92140013 83.21225709 -66.44403432 77.39815988 -69.49609375 70.28125 C-70.44939105 66.87738618 -70.74905757 63.32003943 -71.1875 59.8125 C-63.5975 59.1525 -56.0075 58.4925 -48.1875 57.8125 C-46.8675 60.4525 -45.5475 63.0925 -44.1875 65.8125 C-38.6024397 70.88982754 -32.01459101 70.30644694 -24.83203125 70.1484375 C-21.59942542 69.85046955 -19.79670794 69.65650753 -17.1875 67.8125 C-15.08918747 64.6288534 -14.2152697 62.50674241 -14.0625 58.6875 C-15.63087152 54.67943944 -18.43411082 53.51112682 -22.1875 51.8125 C-25.2526346 50.7794159 -28.35570644 50.00261179 -31.5 49.25 C-33.19289976 48.82106729 -34.88561042 48.39138756 -36.578125 47.9609375 C-38.11435012 47.57719019 -39.65078273 47.19427175 -41.1875 46.8125 C-53.08293659 43.85358487 -61.33586929 39.08994606 -68.1875 28.8125 C-70.74729294 19.8532247 -68.78380306 12.1231199 -64.8125 4 C-59.69576209 -2.88791642 -51.06251825 -6.81899917 -42.8125 -8.5 C-27.61336533 -10.71698458 -12.78794434 -8.77604024 0 0 Z " fill="#3580EA" transform="translate(647.1875,454.1875)"/>
<path d="M0 0 C0 31.35 0 62.7 0 95 C-4.88379337 95.97675867 -9.18564182 96.18353583 -14.125 96.1875 C-14.93582031 96.19974609 -15.74664063 96.21199219 -16.58203125 96.22460938 C-17.36191406 96.22654297 -18.14179687 96.22847656 -18.9453125 96.23046875 C-19.65187988 96.23457764 -20.35844727 96.23868652 -21.08642578 96.24291992 C-23 96 -23 96 -26 94 C-25.01 93.505 -25.01 93.505 -24 93 C-24 62.31 -24 31.62 -24 0 C-3 -1 -3 -1 0 0 Z " fill="#3784F1" transform="translate(941,448)"/>
<path d="M0 0 C4.29749154 2.52244069 6.2972384 5.33981037 8 10 C8.71932787 14.38614557 8.37698302 17.24603395 6.375 21.25 C3.18585931 24.94268922 0.59013339 27.54191029 -4.36328125 28.41796875 C-9.69023413 28.71705412 -13.46502573 28.02914293 -17.5859375 24.54296875 C-20.08764855 21.81320116 -21.102579 19.589684 -22 16 C-21.67442072 10.42684884 -20.18113944 5.84212813 -16 2 C-10.52922794 -1.21810121 -6.01940607 -1.65194227 0 0 Z " fill="#347BDF" transform="translate(792,515)"/>
<path d="M0 0 C4.24141706 2.21291325 6.43840228 5.57787256 8.40234375 9.84765625 C9.44260222 13.59394656 8.58875804 16.53294391 7 20 C4.714779 23.50400553 2.84420219 25.42360054 -1 27 C-5.96351704 27.70439351 -9.91404116 27.53310707 -14.4375 25.3125 C-17.71936925 22.35081312 -19.35833303 19.7416675 -20.875 15.625 C-21.10072691 10.88473482 -19.05013472 7.2533866 -16.0625 3.6875 C-11.04167358 -0.42044889 -6.3258333 -0.80230081 0 0 Z " fill="#3680E9" transform="translate(935,412)"/>
<path d="M0 0 C7.92 0 15.84 0 24 0 C24.33 18.81 24.66 37.62 25 57 C26.98 55.35 28.96 53.7 31 52 C29.55922954 55.36179774 27.75249979 57.59156268 25 60 C24.34 60 23.68 60 23 60 C23 40.86 23 21.72 23 2 C15.74 2 8.48 2 1 2 C1 43.58 1 85.16 1 128 C8.26 128 15.52 128 23 128 C22.82597656 125.14214844 22.65195312 122.28429687 22.47265625 119.33984375 C20.96405211 87.5489891 20.96405211 87.5489891 26.33984375 79.87109375 C29.78473392 76.14712386 33.56729879 73.43798566 38 71 C42.08288689 72.3609623 42.88685817 74.47953322 45.1875 78.0625 C45.90292969 79.16722656 46.61835938 80.27195312 47.35546875 81.41015625 C48.16951172 82.69212891 48.16951172 82.69212891 49 84 C48.67 84.66 48.34 85.32 48 86 C46.66094733 84.2126038 45.32890934 82.41995047 44 80.625 C43.2575 79.62726563 42.515 78.62953125 41.75 77.6015625 C40 75 40 75 40 73 C38.8095016 74.017335 37.6228126 75.03912764 36.4375 76.0625 C35.77621094 76.63097656 35.11492187 77.19945312 34.43359375 77.78515625 C33.63050781 78.51605469 32.82742188 79.24695313 32 80 C31.42672974 80.46216919 30.85345947 80.92433838 30.26281738 81.4005127 C26.67423236 84.53041881 24.58007161 86.80706515 24.11352539 91.65014648 C24.07316885 93.3900023 24.0695503 95.13099692 24.09765625 96.87109375 C24.07921913 98.25458763 24.07921913 98.25458763 24.06040955 99.66603088 C24.02880242 102.59067469 24.04492037 105.51277994 24.0625 108.4375 C24.04938378 110.42905978 24.03314032 112.42060157 24.01367188 114.41210938 C23.96707644 119.27626715 23.98511956 124.13409661 24 129 C15.75 129 7.5 129 -1 129 C-1.02254688 112.32814247 -1.04097909 95.65629789 -1.05181217 78.98442936 C-1.05697517 71.24392718 -1.06401793 63.50343513 -1.07543945 55.76293945 C-1.08538619 49.01872849 -1.0918534 42.27452485 -1.09408849 35.53030676 C-1.09539562 31.95713134 -1.09848158 28.3839769 -1.10573006 24.81080818 C-1.11374372 20.82837649 -1.11399114 16.84596559 -1.11352539 12.86352539 C-1.11712067 11.67022614 -1.12071594 10.47692688 -1.12442017 9.24746704 C-1.1230455 8.16908066 -1.12167084 7.09069427 -1.12025452 5.97962952 C-1.12117631 5.03663529 -1.1220981 4.09364107 -1.12304783 3.12207127 C-1 1 -1 1 0 0 Z " fill="#214E90" transform="translate(368,414)"/>
<path d="M0 0 C0 31.35 0 62.7 0 95 C-4.88379337 95.97675867 -9.18564182 96.18353583 -14.125 96.1875 C-14.93582031 96.19974609 -15.74664063 96.21199219 -16.58203125 96.22460938 C-17.36191406 96.22654297 -18.14179687 96.22847656 -18.9453125 96.23046875 C-19.65187988 96.23457764 -20.35844727 96.23868652 -21.08642578 96.24291992 C-23 96 -23 96 -26 94 C-25.01 93.505 -25.01 93.505 -24 93 C-24 62.31 -24 31.62 -24 0 C-3 -1 -3 -1 0 0 Z M-22 1 C-22 31.69 -22 62.38 -22 94 C-15.4 94 -8.8 94 -2 94 C-2 63.31 -2 32.62 -2 1 C-8.6 1 -15.2 1 -22 1 Z " fill="#1F4B8C" transform="translate(941,448)"/>
<path d="M0 0 C8.10587637 1.48716683 16.05357102 3.83961561 24 6 C24.68416992 6.18498047 25.36833984 6.36996094 26.07324219 6.56054688 C27.84466289 7.04624422 29.61009746 7.5536265 31.375 8.0625 C32.35210938 8.34222656 33.32921875 8.62195313 34.3359375 8.91015625 C38.02803373 10.42055925 41.18207741 12.36415482 43 16 C43.56838366 22.93428064 43.56838366 22.93428064 41.5 26.8125 C35.87169523 31.73726667 29.92151094 32.52197543 22.6796875 32.28125 C17.10454598 31.69610395 12.84622979 30.3205435 9.0625 26.0625 C7.35261836 23.52358484 6.34471694 21.9875468 6 19 C4.74316406 19.24556641 4.74316406 19.24556641 3.4609375 19.49609375 C-0.20517307 20.02987283 -3.67239385 20.09743025 -7.375 20.0625 C-9.24285156 20.04896484 -9.24285156 20.04896484 -11.1484375 20.03515625 C-12.55996094 20.01775391 -12.55996094 20.01775391 -14 20 C-12.08040119 29.16019081 -9.18276165 35.95193579 -1.6875 41.8125 C6.61451971 47.0453746 14.80345354 47.47075529 24.4375 47.375 C25.60087891 47.38660156 26.76425781 47.39820313 27.96289062 47.41015625 C37.07583221 47.37938661 44.66264309 45.61285466 53 42 C47.90423668 47.72071543 41.11928366 49.55567679 33.6484375 50.20410156 C23.29652699 50.68681212 13.16051099 50.07660079 3 48 C3 47.34 3 46.68 3 46 C2.175 45.835 1.35 45.67 0.5 45.5 C-6.73390013 42.39975709 -11.25653432 36.58565988 -14.30859375 29.46875 C-15.26189105 26.06488618 -15.56155757 22.50753943 -16 19 C-8.41 18.34 -0.82 17.68 7 17 C8.32 19.64 9.64 22.28 11 25 C16.5850603 30.07732754 23.17290899 29.49394694 30.35546875 29.3359375 C33.58807458 29.03796955 35.39079206 28.84400753 38 27 C40.09831253 23.8163534 40.9722303 21.69424241 41.125 17.875 C39.55662848 13.86693944 36.75338918 12.69862682 33 11 C29.93489133 9.96692464 26.83189075 9.18964454 23.6875 8.4375 C22.00235882 8.01269083 20.31746015 7.58691839 18.6328125 7.16015625 C17.83262695 6.9605127 17.03244141 6.76086914 16.20800781 6.55517578 C13.48046223 5.86936876 10.76720383 5.14604244 8.0625 4.375 C7.35222656 4.17648437 6.64195312 3.97796875 5.91015625 3.7734375 C3.62339698 2.84751044 1.91005688 1.54684695 0 0 Z " fill="#24559B" transform="translate(592,495)"/>
<path d="M0 0 C3.46162481 4.21008423 4.90570143 7.53068301 5 13 C3.74462607 18.72139445 1.05151454 22.84460047 -3 27 C-3.66 27 -4.32 27 -5 27 C-5.08710289 30.10398978 -5.14042309 33.20766548 -5.1875 36.3125 C-5.21263672 37.19357422 -5.23777344 38.07464844 -5.26367188 38.98242188 C-5.27333984 39.82998047 -5.28300781 40.67753906 -5.29296875 41.55078125 C-5.3086792 42.33106689 -5.32438965 43.11135254 -5.34057617 43.9152832 C-4.9087812 46.55836367 -4.09972731 47.38428179 -2 49 C0.83588048 50.28531132 0.83588048 50.28531132 2.98950195 49.30322266 C4.10264771 48.73933838 4.10264771 48.73933838 5.23828125 48.1640625 C6.05876953 47.75929688 6.87925781 47.35453125 7.72460938 46.9375 C8.57861328 46.504375 9.43261719 46.07125 10.3125 45.625 C20.89904204 40.27907977 20.89904204 40.27907977 26 40 C28.8125 41.125 28.8125 41.125 31 43 C32.14880448 45.98689164 32.26807437 47.33874989 31.0625 50.3125 C30.711875 50.869375 30.36125 51.42625 30 52 C29.01 51.505 29.01 51.505 28 51 C28.66 48.69 29.32 46.38 30 44 C22.2199633 42.43774364 18.11098731 43.74670072 11.25 47.5 C9.61602191 48.37708057 7.97554482 49.24218517 6.328125 50.09375 C5.6155957 50.48240234 4.90306641 50.87105469 4.16894531 51.27148438 C1.34458179 52.22014497 -0.18146878 51.91693847 -3 51 C-5.27490234 49.74780273 -5.27490234 49.74780273 -7 48 C-7.85927474 44.40746778 -7.64859648 40.74590989 -7.625 37.0625 C-7.67333984 35.55913086 -7.67333984 35.55913086 -7.72265625 34.02539062 C-7.72640499 31.2157069 -7.6473388 28.73530691 -7 26 C-4.078125 23.48046875 -4.078125 23.48046875 -1 22 C2.1074687 17.44237924 2.76119458 13.36052519 2 8 C0.62615784 3.79765928 -0.62341567 2.28059224 -4.1875 -0.375 C-8.33638966 -2.45819776 -11.39688859 -2.58452208 -16 -2 C-19.83669597 0.02693372 -22.99766408 2.10071426 -25 6 C-26.08979003 10.41829602 -26.36162914 13.89384027 -24.9375 18.25 C-23.12034308 21.19690281 -23.12034308 21.19690281 -19.9140625 22.9765625 C-17.74865079 24.74284879 -17.07654585 25.65489854 -16.46411133 28.41601562 C-16.30048736 31.34018396 -16.32932057 34.19846164 -16.4375 37.125 C-16.43943359 38.12660156 -16.44136719 39.12820313 -16.44335938 40.16015625 C-16.57569776 47.46327452 -16.57569776 47.46327452 -18.38305664 49.74951172 C-20.6544475 51.50612715 -22.12288277 51.93149721 -25 52 C-27.8125 50.0625 -27.8125 50.0625 -30 48 C-25.25 48.875 -25.25 48.875 -23 50 C-20.90178785 49.60061233 -20.90178785 49.60061233 -19 49 C-19.01160156 47.73542969 -19.02320313 46.47085938 -19.03515625 45.16796875 C-19.04453566 43.50781398 -19.0536357 41.84765761 -19.0625 40.1875 C-19.07087891 39.35412109 -19.07925781 38.52074219 -19.08789062 37.66210938 C-19.09111328 36.85966797 -19.09433594 36.05722656 -19.09765625 35.23046875 C-19.10289307 34.49207764 -19.10812988 33.75368652 -19.11352539 32.99291992 C-19 31 -19 31 -18 28 C-18.99 27.67 -19.98 27.34 -21 27 C-22.5703125 25.22265625 -22.5703125 25.22265625 -24.125 23.0625 C-24.64320313 22.35222656 -25.16140625 21.64195312 -25.6953125 20.91015625 C-28.57366384 16.69604306 -28.44739143 12.9888365 -28 8 C-26.17918977 2.53756931 -22.67523774 -0.82083833 -18 -4 C-11.41191779 -6.47053083 -5.23522271 -4.30451645 0 0 Z " fill="#24559A" transform="translate(225,404)"/>
<path d="M0 0 C0.66 0.33 1.32 0.66 2 1 C-0.58090767 2.31746333 -3.16450458 3.62909617 -5.75 4.9375 C-6.47960937 5.31068359 -7.20921875 5.68386719 -7.9609375 6.06835938 C-8.66992188 6.42607422 -9.37890625 6.78378906 -10.109375 7.15234375 C-10.75874023 7.48226318 -11.40810547 7.81218262 -12.07714844 8.15209961 C-14.03293079 9.01452116 -15.91540694 9.54374179 -18 10 C-17.938125 11.155 -17.87625 12.31 -17.8125 13.5 C-17.83935251 21.09925945 -20.7682728 26.6406697 -26 32 C-26.7425 32.309375 -27.485 32.61875 -28.25 32.9375 C-28.8275 33.288125 -29.405 33.63875 -30 34 C-30.7614808 37.1630741 -31.32314845 39.75249667 -30.49609375 42.9453125 C-29.93589901 45.26548915 -30.07123857 47.12734825 -30.25 49.5 C-30.34375584 51.85045839 -30.34375584 51.85045839 -30 54 C-27.75503458 56.3293081 -27.75503458 56.3293081 -25 58 C-21.35473458 62.39945826 -21.68005607 66.56095318 -22 72 C-21.01 72.495 -21.01 72.495 -20 73 C-20.66 73 -21.32 73 -22 73 C-22.20625 73.886875 -22.4125 74.77375 -22.625 75.6875 C-24.40866164 79.98450304 -26.23852818 81.31323442 -30 84 C-35.43617053 85.81205684 -40.98215186 85.7099836 -46.375 83.8125 C-50.25350945 81.13448157 -52.50791589 78.47625233 -54 74 C-54.53089929 68.54807269 -54.47844436 64.49299063 -51 60 C-50.67 60.66 -50.34 61.32 -50 62 C-50.33 62.66 -50.66 63.32 -51 64 C-51.40527925 68.83996945 -51.59232881 73.4204565 -49.875 78 C-46.53293321 81.56487125 -43.38997848 82.84836598 -38.5625 83.375 C-33.03960966 82.79364312 -29.3792712 81.48536898 -25.5625 77.375 C-23.04631665 71.94004397 -23.53326653 67.33366737 -24.6875 61.5625 C-25.78318174 58.79996897 -25.78318174 58.79996897 -28.5 57.75 C-29.325 57.5025 -30.15 57.255 -31 57 C-34.78048592 53.21951408 -33.6603218 46.9942346 -33.72387695 41.89233398 C-33.55523148 34.79643859 -33.55523148 34.79643859 -31.09375 31.265625 C-28.7996242 29.64186063 -26.47534779 28.32340974 -24 27 C-20.653877 22.39908087 -20.64739628 18.01125226 -20.6015625 12.48828125 C-20 10 -20 10 -17.94140625 8.40234375 C-16.97074219 7.93957031 -16.00007813 7.47679687 -15 7 C-14.4112207 6.70327393 -13.82244141 6.40654785 -13.21582031 6.10083008 C-11.26111436 5.12073593 -9.29037915 4.18234652 -7.3125 3.25 C-6.63638672 2.92128906 -5.96027344 2.59257812 -5.26367188 2.25390625 C-3.53739544 1.43972214 -1.77068364 0.71246442 0 0 Z " fill="#25569C" transform="translate(251,456)"/>
<path d="M0 0 C-3.30656064 0 -5.30301344 -0.75499558 -8.375 -1.9375 C-18.94985224 -6.0013895 -32.00287805 -6.95449386 -42.828125 -3.03125 C-50.19748989 0.4678729 -55.43894449 5.63189502 -59 13 C-59.96273505 16.31865879 -60.53676236 19.5823991 -61 23 C-57.91462971 23.03540736 -54.83495944 22.99346806 -51.75 22.9375 C-50.44095703 22.95393555 -50.44095703 22.95393555 -49.10546875 22.97070312 C-46.55807742 22.90264305 -44.43275686 22.76809038 -42 22 C-39.96855672 19.7905669 -39.20465839 17.82119227 -38 15 C-33.3411395 10.76467227 -28.7752386 10.7214476 -22.73046875 10.77734375 C-17.77206235 11.18167732 -14.20417376 13.26179728 -11 17 C-11.33 17.66 -11.66 18.32 -12 19 C-12.78375 18.195625 -13.5675 17.39125 -14.375 16.5625 C-18.49668472 13.1326347 -22.77133811 12.84305754 -28 13 C-30.65700436 13.3656428 -32.48134508 13.95056045 -35 15 C-37.10232344 17.8684413 -37.10232344 17.8684413 -38 21 C-39.48498029 23.52446649 -40.28197313 24.7839332 -43.12890625 25.640625 C-46.72377526 26.090595 -50.07525938 25.88680784 -53.6875 25.625 C-54.36361328 25.58117187 -55.03972656 25.53734375 -55.73632812 25.4921875 C-60.73132622 25.13433689 -60.73132622 25.13433689 -63 24 C-62.77397443 14.15761378 -59.97028959 7.56662485 -52.875 0.6875 C-38.26685492 -11.5550523 -15.03811943 -10.91000822 0 0 Z " fill="#26579C" transform="translate(547,453)"/>
<path d="M0 0 C0.83595703 0.00451172 1.67191406 0.00902344 2.53320312 0.01367188 C4.58466649 0.02539452 6.63609273 0.04332797 8.6875 0.0625 C8.86341619 3.24928936 8.96886778 6.4348164 9.0625 9.625 C9.11277344 10.52025391 9.16304687 11.41550781 9.21484375 12.33789062 C9.3210065 17.16829592 9.07030489 20.25832296 5.9296875 24.0625 C0.99445896 28.9882685 -4.40533536 31.23061121 -11.375 31.5625 C-16.33736853 31.33061362 -20.35271146 30.11068255 -24.3125 27.0625 C-27.32959685 23.0082761 -27.86377122 19.17048643 -27.6484375 14.234375 C-27.08437168 10.58762388 -25.81898833 8.75238992 -23.3125 6.0625 C-15.61288512 0.76183229 -9.13618656 -0.09374146 0 0 Z M-24.3125 9.0625 C-26.73816684 12.92151543 -26.52821491 16.52678111 -25.9296875 20.90625 C-24.96835931 24.26481429 -23.00865352 25.95818506 -20.3125 28.0625 C-15.42174478 30.50787761 -8.00417324 29.81018701 -2.8515625 28.37890625 C1.62989396 26.30988133 5.24098006 23.43743942 7.6875 19.0625 C8.26180017 16.06868796 8.16711928 13.2213577 8 10.1875 C7.96616211 9.011875 7.96616211 9.011875 7.93164062 7.8125 C7.87318018 5.8949974 7.78351283 3.9784894 7.6875 2.0625 C4.68693916 1.98083151 1.6886461 1.92168449 -1.3125 1.875 C-2.57126953 1.83729492 -2.57126953 1.83729492 -3.85546875 1.79882812 C-11.73503369 1.70720528 -18.53491875 3.28491875 -24.3125 9.0625 Z " fill="#2658A0" transform="translate(721.3125,495.9375)"/>
<path d="M0 0 C0.33 0 0.66 0 1 0 C1.03738281 0.90621094 1.07476562 1.81242187 1.11328125 2.74609375 C1.63354135 12.38620737 2.17768392 21.19650294 9.18359375 28.421875 C16.99519046 35.20872462 23.83317628 35.37369213 33.77978516 34.69921875 C43.64335766 33.96306336 43.64335766 33.96306336 53 31 C48.58799882 36.562958 41.98754258 37.85449274 35.25 38.875 C24.75252803 39.65985772 15.23748219 36.29240913 7.32421875 29.578125 C1.63781846 23.87761453 -0.97226964 15.66424605 -1.01953125 7.71484375 C-0.78760188 5.10983996 -0.47401285 2.5710045 0 0 Z " fill="#295FAC" transform="translate(481,507)"/>
<path d="M0 0 C0.66 0.33 1.32 0.66 2 1 C1.67 2.32 1.34 3.64 1 5 C0.34 5 -0.32 5 -1 5 C-1.31191814 10.19863564 -0.92264949 13.61602577 2 18 C6.45556114 19.58505863 11.35393258 19.63798987 16 19 C19.31366812 17.26977606 19.31366812 17.26977606 21 14 C21.67350313 9.49394334 21.20885537 5.3697149 20 1 C22.97100312 1.99033437 23.88393716 2.79310537 25.4375 5.5625 C26.21333112 10.30369017 25.19222072 13.76063199 23 18 C18.29372389 22.59148889 14.93085276 23.35499181 8.54296875 23.28125 C4.80819582 22.86818756 2.76058172 21.49125668 0 19 C-2.36799271 15.81545809 -3.81011527 12.98757935 -4 9 C-2.83472933 5.87495594 -1.48878705 2.97757411 0 0 Z " fill="#3374CB" transform="translate(918,416)"/>
<path d="M0 0 C0.33 0.66 0.66 1.32 1 2 C0.29559822 3.6329314 -0.41413134 5.26557983 -1.2109375 6.85546875 C-2.35309076 9.72899932 -2.35309076 9.72899932 -3 16 C3.27 15.67 9.54 15.34 16 15 C16.99 13.02 17.98 11.04 19 9 C24.44049494 4.09028506 27.83307771 3.71251749 35.015625 3.78125 C39.75031193 4.12829512 42.50395547 5.91952339 46.25 8.625 C48.80875005 12.09758936 49.31767982 15.79834414 50 20 C49.34 20 48.68 20 48 20 C47.84144531 19.39671875 47.68289063 18.7934375 47.51953125 18.171875 C46.01310243 13.01173209 44.85141333 9.83985171 40 7 C35.08512134 4.96625711 29.54096108 5.41850525 24.6875 7.25 C20.26540856 10.1295014 18.8728494 13.19090365 17 18 C13.5625177 18.02901394 10.12506688 18.04680335 6.6875 18.0625 C5.71103516 18.07087891 4.73457031 18.07925781 3.72851562 18.08789062 C2.79072266 18.09111328 1.85292969 18.09433594 0.88671875 18.09765625 C0.02264404 18.10289307 -0.84143066 18.10812988 -1.73168945 18.11352539 C-4 18 -4 18 -7 17 C-5.34608232 10.77274933 -3.44240996 5.46037442 0 0 Z " fill="#275AA0" transform="translate(824,460)"/>
<path d="M0 0 C2.57285802 2.57285802 2.26891587 3.60563737 2.31884766 7.18408203 C2.33871735 8.26505157 2.35858704 9.34602112 2.37905884 10.45974731 C2.39061005 11.63060883 2.40216125 12.80147034 2.4140625 14.0078125 C2.43342865 15.20356903 2.4527948 16.39932556 2.4727478 17.63131714 C2.53267944 21.46247148 2.5789836 25.29365565 2.625 29.125 C2.66316724 31.71746125 2.70221821 34.30990966 2.7421875 36.90234375 C2.83839225 43.26812519 2.92237314 49.63396599 3 56 C-2.28 56 -7.56 56 -13 56 C-12.67 55.34 -12.34 54.68 -12 54 C-7.71 54 -3.42 54 1 54 C0.67 52.02 0.34 50.04 0 48 C-0.0800973 46.30566924 -0.11801274 44.60881467 -0.11352539 42.91259766 C-0.11344986 41.95205475 -0.11337433 40.99151184 -0.11329651 40.00186157 C-0.10813522 38.98288788 -0.10297394 37.96391418 -0.09765625 36.9140625 C-0.0962413 35.85714203 -0.09482635 34.80022156 -0.09336853 33.71127319 C-0.0877894 30.34915284 -0.07524069 26.98710009 -0.0625 23.625 C-0.05748231 21.33984471 -0.05291987 19.05468838 -0.04882812 16.76953125 C-0.03782679 11.1796646 -0.02110944 5.58983713 0 0 Z " fill="#3A8BF5" transform="translate(892,486)"/>
<path d="M0 0 C0.33 0 0.66 0 1 0 C0.08921827 15.17969544 -7.82861761 27.53891378 -15.890625 39.8984375 C-22.25254413 49.67057454 -27.70825059 59.76932554 -31 71 C-31.33 71 -31.66 71 -32 71 C-31.44745089 65.75078342 -30.51453244 61.04844147 -29 56 C-29 55.34 -29 54.68 -29 54 C-28.01 54 -27.02 54 -26 54 C-25.73445313 53.11441406 -25.46890625 52.22882812 -25.1953125 51.31640625 C-24.04894971 48.13581145 -22.7387301 45.74176366 -20.875 42.9375 C-20.25753906 41.99003906 -19.64007813 41.04257812 -19.00390625 40.06640625 C-18.34261719 39.05449219 -17.68132812 38.04257812 -17 37 C-9.32152956 24.97468595 -4.33728041 13.49178618 0 0 Z " fill="#225296" transform="translate(290,474)"/>
<path d="M0 0 C0.33 0 0.66 0 1 0 C1 13.86 1 27.72 1 42 C-5.93 42 -12.86 42 -20 42 C-20 41.34 -20 40.68 -20 40 C-13.73 40 -7.46 40 -1 40 C-1.01160156 37.28007813 -1.02320313 34.56015625 -1.03515625 31.7578125 C-1.04294998 29.13004676 -1.04902495 26.5022823 -1.05493164 23.87451172 C-1.05996737 22.04507879 -1.06679627 20.21564991 -1.07543945 18.38623047 C-1.08753824 15.76008102 -1.09323583 13.13398468 -1.09765625 10.5078125 C-1.10281754 9.68693146 -1.10797882 8.86605042 -1.11329651 8.02029419 C-1.11387171 2.22774341 -1.11387171 2.22774341 0 0 Z " fill="#3989F5" transform="translate(390,500)"/>
<path d="M0 0 C0.66 0 1.32 0 2 0 C2.680625 0.7425 3.36125 1.485 4.0625 2.25 C8.97641632 7.26595684 14.90250295 9.25142379 21.84765625 9.34765625 C23.92019343 9.27546528 25.99203944 9.18003706 28.0625 9.0625 C29.09955078 9.03865234 30.13660156 9.01480469 31.20507812 8.99023438 C38.15302095 8.66861115 42.47831547 7.17682874 48 3 C48.66 2.67 49.32 2.34 50 2 C50.495 3.98 50.495 3.98 51 6 C50.42121094 6.12503906 49.84242188 6.25007812 49.24609375 6.37890625 C46.98389311 7.00445391 45.15046637 7.87548256 43.0625 8.9375 C32.37264897 13.6885449 22.02203673 13.80207277 11 10 C6.01698321 7.51541246 2.21916067 5.24220097 0 0 Z " fill="#2A60AD" transform="translate(678,533)"/>
<path d="M0 0 C0 0.66 0 1.32 0 2 C-0.78012451 2.0093457 -1.56024902 2.01869141 -2.36401367 2.02832031 C-5.97243225 2.08271456 -9.57964855 2.16622354 -13.1875 2.25 C-15.02731445 2.27126953 -15.02731445 2.27126953 -16.90429688 2.29296875 C-29.82926224 2.63399686 -40.33943882 5.11328222 -50 14 C-50 13.01 -50 12.02 -50 11 C-48.390625 9.4296875 -48.390625 9.4296875 -46.25 7.875 C-45.55390625 7.35679687 -44.8578125 6.83859375 -44.140625 6.3046875 C-42.04463723 5.0272059 -40.35193213 4.58287014 -38 4 C-37.67 3.34 -37.34 2.68 -37 2 C-25.81525886 -1.50669138 -11.46167464 -1.87554676 0 0 Z " fill="#275DA7" transform="translate(873,482)"/>
<path d="M0 0 C-0.33 0.99 -0.66 1.98 -1 3 C-2.17804199 2.89788208 -2.17804199 2.89788208 -3.37988281 2.79370117 C-19.22760887 0.82901293 -19.22760887 0.82901293 -33.53125 5.89453125 C-36.54369657 8.95162871 -38.85971051 12.29016488 -41 16 C-41 11.14525192 -38.28290792 8.10834593 -35.33105469 4.50317383 C-26.72816153 -4.003997 -11.1271818 -0.9287306 0 0 Z " fill="#235292" transform="translate(473,414)"/>
<path d="M0 0 C4.34116587 0.6577524 7.9947883 2.24034869 12 4 C12.01458252 4.82612793 12.02916504 5.65225586 12.04418945 6.50341797 C12.10583615 9.6162494 12.18009206 12.72847321 12.26245117 15.84082031 C12.31142159 17.83116913 12.34629946 19.82184881 12.38085938 21.8125 C12.59171205 29.4031962 13.45388184 35.85996573 16 43 C16.34859162 44.32942573 16.68686748 45.66177845 17 47 C12.82589587 43.66071669 11.80921789 40.09748915 11 35 C10.65581245 30.39864275 10.53846493 25.79987342 10.4375 21.1875 C10.37765026 18.76422208 10.31403014 16.34103345 10.24609375 13.91796875 C10.22216553 12.85344482 10.1982373 11.7889209 10.17358398 10.69213867 C10.10827028 7.90059431 10.10827028 7.90059431 9 5 C6.90861544 3.76049958 6.90861544 3.76049958 4.4375 2.8125 C3.19806641 2.29623047 3.19806641 2.29623047 1.93359375 1.76953125 C1.29550781 1.51558594 0.65742187 1.26164063 0 1 C0 0.67 0 0.34 0 0 Z " fill="#1C4279" transform="translate(90,521)"/>
<path d="M0 0 C0.556875 0.268125 1.11375 0.53625 1.6875 0.8125 C-0.2925 1.8025 -0.2925 1.8025 -2.3125 2.8125 C-1.9825 3.4725 -1.6525 4.1325 -1.3125 4.8125 C-2.3025 5.4725 -3.2925 6.1325 -4.3125 6.8125 C-5.06335106 9.22513295 -5.06335106 9.22513295 -4.3125 11.8125 C0.19517386 15.44387645 4.46854335 16.82839021 10.0625 18.0625 C10.79855469 18.23523438 11.53460937 18.40796875 12.29296875 18.5859375 C14.08863016 19.0057025 15.88774377 19.41065419 17.6875 19.8125 C17.6875 20.1425 17.6875 20.4725 17.6875 20.8125 C9.56942813 20.46030599 0.80586847 19.27615349 -5.59765625 13.890625 C-7.3125 11.8125 -7.3125 11.8125 -7.875 8.375 C-7.3125 4.8125 -7.3125 4.8125 -5.0625 1.8125 C-2.3125 -0.1875 -2.3125 -0.1875 0 0 Z " fill="#265BA6" transform="translate(608.3125,464.1875)"/>
<path d="M0 0 C2.39763185 2.39763185 2.34280586 3.33273498 2.625 6.625 C2.69976563 7.44226563 2.77453125 8.25953125 2.8515625 9.1015625 C2.92503906 10.04128906 2.92503906 10.04128906 3 11 C2.43490723 11.0501123 1.86981445 11.10022461 1.28759766 11.15185547 C-1.26753853 11.38366272 -3.82117762 11.6291579 -6.375 11.875 C-7.26445313 11.95363281 -8.15390625 12.03226562 -9.0703125 12.11328125 C-9.92109375 12.19707031 -10.771875 12.28085937 -11.6484375 12.3671875 C-12.82672119 12.47716064 -12.82672119 12.47716064 -14.02880859 12.58935547 C-16.22420226 12.85884591 -16.22420226 12.85884591 -18 15 C-18.98006859 13.37554381 -19.95902636 11.75041739 -20.9375 10.125 C-21.48277344 9.22007812 -22.02804687 8.31515625 -22.58984375 7.3828125 C-23.43898017 5.94798364 -24.25437724 4.49124552 -25 3 C-22.525 3.495 -22.525 3.495 -20 4 C-19.67 6.31 -19.34 8.62 -19 11 C-18.16210938 10.83628906 -17.32421875 10.67257812 -16.4609375 10.50390625 C-12.79482693 9.97012717 -9.32760615 9.90256975 -5.625 9.9375 C-3.75714844 9.95103516 -3.75714844 9.95103516 -1.8515625 9.96484375 C-0.44003906 9.98224609 -0.44003906 9.98224609 1 10 C0.505 5.05 0.505 5.05 0 0 Z " fill="#26589F" transform="translate(653,464)"/>
<path d="M0 0 C0.33 0 0.66 0 1 0 C1 7.59 1 15.18 1 23 C-3.88379337 23.97675867 -8.18564182 24.18353583 -13.125 24.1875 C-13.93582031 24.19974609 -14.74664063 24.21199219 -15.58203125 24.22460938 C-16.36191406 24.22654297 -17.14179687 24.22847656 -17.9453125 24.23046875 C-18.65187988 24.23457764 -19.35844727 24.23868652 -20.08642578 24.24291992 C-22 24 -22 24 -25 22 C-23.68 21.34 -22.36 20.68 -21 20 C-21 20.66 -21 21.32 -21 22 C-14.4 22 -7.8 22 -1 22 C-1.0309375 19.6178125 -1.0309375 19.6178125 -1.0625 17.1875 C-1.07000095 11.41176807 -0.62158584 5.73856931 0 0 Z " fill="#2B5FA8" transform="translate(940,520)"/>
<path d="M0 0 C2.9375 1 2.9375 1 4.875 2.75 C5.9375 5 5.9375 5 5.8125 7.5625 C4.84791439 10.24955992 4.32668727 11.43467041 1.9375 13 C-1.21174548 13.39365568 -3.18159116 13.52854531 -5.9375 11.875 C-7.61718045 9.07553259 -7.51992277 7.20195936 -7.0625 4 C-4.88642935 0.73589403 -3.96077619 0 0 0 Z M-4.875 3.1875 C-6.3513365 5.01846177 -6.3513365 5.01846177 -5.75 7.6875 C-5.523125 8.450625 -5.29625 9.21375 -5.0625 10 C-2.14767222 10.80967438 -0.60136783 11.21845993 2.25 10.0625 C2.806875 9.711875 3.36375 9.36125 3.9375 9 C4.18780977 6.58380177 4.18780977 6.58380177 3.9375 4 C0.69543839 1.83862559 -1.39448311 0.90716135 -4.875 3.1875 Z " fill="#275CA7" transform="translate(214.0625,409)"/>
<path d="M0 0 C0.66 0.33 1.32 0.66 2 1 C1.01 2.485 1.01 2.485 0 4 C-0.16713569 6.62531524 -0.16713569 6.62531524 0 9 C4.14093698 9.20970559 4.14093698 9.20970559 8 8 C8.20086443 4.28400809 8.1519437 3.22791555 6 0 C7.32 0.33 8.64 0.66 10 1 C11.31690141 7.34507042 11.31690141 7.34507042 10.0625 9.9375 C6.69588022 11.67181928 3.75827927 11.23862091 0 11 C-0.66 10.67 -1.32 10.34 -2 10 C-2.8125 6.625 -2.8125 6.625 -3 3 C-1.5625 1.0625 -1.5625 1.0625 0 0 Z " fill="#24569D" transform="translate(209,520)"/>
<path d="M0 0 C0.99 0.66 1.98 1.32 3 2 C3 2.66 3 3.32 3 4 C-4.92 4 -12.84 4 -21 4 C-21 3.01 -21 2.02 -21 1 C-14.07 1.33 -7.14 1.66 0 2 C0 1.34 0 0.68 0 0 Z " fill="#3B8BF3" transform="translate(467,538)"/>
<path d="M0 0 C3.68526599 5.52789899 3.15917566 12.17719144 3.125 18.625 C3.12886719 19.36234375 3.13273437 20.0996875 3.13671875 20.859375 C3.12983992 24.69776228 2.92887716 28.26974729 2 32 C1.67 32 1.34 32 1 32 C0.03711992 21.3051534 -0.10947633 10.72867997 0 0 Z " fill="#24559D" transform="translate(290,441)"/>
<path d="M0 0 C0.66 0.33 1.32 0.66 2 1 C1.67 2.32 1.34 3.64 1 5 C0.34 5 -0.32 5 -1 5 C-1.38091701 9.66623342 -1.12243543 13.41100269 1.37890625 17.48828125 C4.76455729 20.64550282 9.56933797 21.19789739 14 22 C14 22.33 14 22.66 14 23 C7.93707386 23.41813284 4.80292012 23.13274522 0 19 C-2.36799271 15.81545809 -3.81011527 12.98757935 -4 9 C-2.83472933 5.87495594 -1.48878705 2.97757411 0 0 Z " fill="#265497" transform="translate(918,416)"/>
<path d="M0 0 C0.99 0.33 1.98 0.66 3 1 C2.34 1.37125 1.68 1.7425 1 2.125 C-1.35303045 3.90894778 -1.35303045 3.90894778 -1.25 7.1875 C-1.1675 8.115625 -1.085 9.04375 -1 10 C2.465 9.505 2.465 9.505 6 9 C6.93065133 6.39417629 7.14917407 5.35801776 6.0625 2.75 C5.711875 2.1725 5.36125 1.595 5 1 C7.43003677 1.9406594 8.72074209 2.49384505 10 4.8125 C10 7 10 7 8.5 9.75 C6 12 6 12 2.375 12.4375 C-1 12 -1 12 -3 10 C-3.56949153 3.73559322 -3.56949153 3.73559322 -1.5 1.0625 C-1.005 0.711875 -0.51 0.36125 0 0 Z " fill="#275BA7" transform="translate(166,492)"/>
<path d="M0 0 C0.99 0.495 0.99 0.495 2 1 C1.94199219 1.60328125 1.88398438 2.2065625 1.82421875 2.828125 C1.6847931 5.29795076 1.65102599 7.54867036 2 10 C4.24496542 12.3293081 4.24496542 12.3293081 7 14 C10.64526542 18.39945826 10.31994393 22.56095318 10 28 C10.66 28.33 11.32 28.66 12 29 C11.34 29 10.68 29 10 29 C9.67 29.66 9.34 30.32 9 31 C8.95101562 30.34773437 8.90203125 29.69546875 8.8515625 29.0234375 C8.32203158 21.79132777 8.32203158 21.79132777 6 15 C3.52363988 13.62533375 3.52363988 13.62533375 1 13 C0 12 0 12 -0.09765625 9.27734375 C-0.08605469 8.17519531 -0.07445312 7.07304687 -0.0625 5.9375 C-0.05347656 4.83277344 -0.04445312 3.72804688 -0.03515625 2.58984375 C-0.02355469 1.73519531 -0.01195312 0.88054687 0 0 Z " fill="#2B60AA" transform="translate(219,500)"/>
<path d="M0 0 C2.68721915 2.29808633 3.48417713 3.98288218 4.125 7.4375 C4.27195313 8.19933594 4.41890625 8.96117187 4.5703125 9.74609375 C5 12 5 12 5.2421875 14.12109375 C6.38908212 16.964683 8.25642863 17.41689329 11 18.625 C15.90676417 20.81352834 15.90676417 20.81352834 17 23 C15.6016978 22.57045619 14.20646093 22.13092966 12.8125 21.6875 C12.03519531 21.44386719 11.25789062 21.20023437 10.45703125 20.94921875 C7.6205563 19.85341046 5.39954075 18.89329116 3 17 C2.109375 14.00390625 2.109375 14.00390625 1.75 10.5625 C1.16763698 5.22628821 1.16763698 5.22628821 0 0 Z " fill="#215298" transform="translate(178,429)"/>
<path d="M0 0 C0.66 0 1.32 0 2 0 C2 7.26 2 14.52 2 22 C-0.31 23.32 -2.62 24.64 -5 26 C-4 23 -4 23 -2.48046875 21.5625 C1.96255895 16.87328871 0.10129443 6.02139093 0 0 Z " fill="#245497" transform="translate(206,490)"/>
<path d="M0 0 C-0.825 0.495 -1.65 0.99 -2.5 1.5 C-6.88539654 4.40623666 -10.36793297 8.22853595 -14 12 C-14.99775534 13.00223963 -15.99689925 14.0031104 -17 15 C-15.223082 8.68206935 -10.38777266 3.7908295 -5.25 -0.0625 C-3 -1 -3 -1 0 0 Z " fill="#3C8BF5" transform="translate(505,451)"/>
<path d="M0 0 C-0.33 0.99 -0.66 1.98 -1 3 C-13.87 2.505 -13.87 2.505 -27 2 C-27 1.67 -27 1.34 -27 1 C-24.18766245 0.8301069 -21.37518151 0.66401768 -18.5625 0.5 C-17.77939453 0.45230469 -16.99628906 0.40460938 -16.18945312 0.35546875 C-10.78341953 0.04401002 -5.41503945 -0.04336368 0 0 Z " fill="#285DA6" transform="translate(473,414)"/>
<path d="M0 0 C4.62 0 9.24 0 14 0 C14 0.33 14 0.66 14 1 C13.37351562 1.04898438 12.74703125 1.09796875 12.1015625 1.1484375 C11.28429687 1.22320313 10.46703125 1.29796875 9.625 1.375 C8.81289063 1.44460938 8.00078125 1.51421875 7.1640625 1.5859375 C4.79665809 1.82892588 4.79665809 1.82892588 3 4 C2.30251417 5.31747324 1.63040043 6.64914193 1 8 C0.67 5.36 0.34 2.72 0 0 Z " fill="#3E8EF6" transform="translate(578,515)"/>
<path d="M0 0 C4.38889325 0.66498383 7.9811485 2.18757677 12 4 C12 7.3 12 10.6 12 14 C11.01 14.495 11.01 14.495 10 15 C10.020625 13.906875 10.04125 12.81375 10.0625 11.6875 C10.18544452 8.05615809 10.18544452 8.05615809 9 5 C6.90861544 3.76049958 6.90861544 3.76049958 4.4375 2.8125 C3.19806641 2.29623047 3.19806641 2.29623047 1.93359375 1.76953125 C1.29550781 1.51558594 0.65742187 1.26164063 0 1 C0 0.67 0 0.34 0 0 Z " fill="#25569B" transform="translate(90,521)"/>
<path d="M0 0 C0 3 0 3 -1.875 5.1875 C-4 7 -4 7 -6 7 C-6.268125 7.9075 -6.53625 8.815 -6.8125 9.75 C-7.89576294 12.71471963 -8.98359457 14.6169754 -11 17 C-10.70195267 11.03905339 -7.89696991 7.28027842 -4 3 C-2.69245676 1.96650668 -1.3649691 0.95636663 0 0 Z " fill="#3D8BF4" transform="translate(829,490)"/>
<path d="M0 0 C0.33 0.66 0.66 1.32 1 2 C7.93 2 14.86 2 22 2 C18.44656955 3.77671523 17.43293537 4.25407625 13.77734375 4.265625 C12.99166016 4.26820313 12.20597656 4.27078125 11.39648438 4.2734375 C10.17928711 4.26183594 10.17928711 4.26183594 8.9375 4.25 C8.12216797 4.25773438 7.30683594 4.26546875 6.46679688 4.2734375 C5.68240234 4.27085937 4.89800781 4.26828125 4.08984375 4.265625 C3.37691162 4.26336914 2.66397949 4.26111328 1.92944336 4.25878906 C0 4 0 4 -3 2 C-2.01 1.34 -1.02 0.68 0 0 Z " fill="#1D4784" transform="translate(918,540)"/>
<path d="M0 0 C5.40329973 0.48029331 5.40329973 0.48029331 7.9375 2.6875 C9.36056506 5.78475925 8.81133498 7.75466007 8 11 C7.01 11 6.02 11 5 11 C5.66 8.69 6.32 6.38 7 4 C4.69 3.34 2.38 2.68 0 2 C0 1.34 0 0.68 0 0 Z " fill="#2960AC" transform="translate(248,444)"/>
<path d="M0 0 C1.15392455 2.3078491 1.53437166 4.47230331 2 7 C4.31 7.33 6.62 7.66 9 8 C8.67 8.66 8.34 9.32 8 10 C2.6 10.36 2.6 10.36 0.125 8.875 C-1.48515263 6.19141229 -1.26647742 4.06449028 -1 1 C-0.67 0.67 -0.34 0.34 0 0 Z " fill="#24569B" transform="translate(208,412)"/>
<path d="M0 0 C1.32 0.33 2.64 0.66 4 1 C4.33 3.31 4.66 5.62 5 8 C3.68 8.99 2.36 9.98 1 11 C0.67 10.34 0.34 9.68 0 9 C0.66 8.67 1.32 8.34 2 8 C2.20086443 4.28400809 2.1519437 3.22791555 0 0 Z " fill="#285FAD" transform="translate(215,520)"/>
<path d="M0 0 C0.66 0.33 1.32 0.66 2 1 C1.67 2.32 1.34 3.64 1 5 C0.34 5 -0.32 5 -1 5 C-1 7.64 -1 10.28 -1 13 C-1.99 13.495 -1.99 13.495 -3 14 C-4.60218232 9.19345303 -3.16943023 6.42230008 -1 2 C-0.67 1.34 -0.34 0.68 0 0 Z " fill="#2A5B9E" transform="translate(918,416)"/>
<path d="M0 0 C1.65 0 3.3 0 5 0 C5 0.33 5 0.66 5 1 C3.35 1 1.7 1 0 1 C0 0.67 0 0.34 0 0 Z " fill="#3D85E4" transform="translate(515,480)"/>
<path d="M0 0 C4 1 4 1 4 1 Z " fill="#3C86E6" transform="translate(713,480)"/>
<path d="M0 0 C0.33 0.66 0.66 1.32 1 2 C0.01 1.67 -0.98 1.34 -2 1 C-1.34 0.67 -0.68 0.34 0 0 Z " fill="#437CCC" transform="translate(930,409)"/>
<path d="M0 0 C3 1 3 1 3 1 Z " fill="#4378C2" transform="translate(168,613)"/>
<path d="M0 0 C3 1 3 1 3 1 Z " fill="#4489E5" transform="translate(149,561)"/>
<path d="M0 0 C3 1 3 1 3 1 Z " fill="#4185E4" transform="translate(519,523)"/>
<path d="M0 0 C3 1 3 1 3 1 Z " fill="#3E86E4" transform="translate(528,520)"/>
<path d="M0 0 C3 1 3 1 3 1 Z " fill="#3F83E3" transform="translate(854,499)"/>
<path d="M0 0 C0.66 0.66 1.32 1.32 2 2 C1.34 2 0.68 2 0 2 C0 1.34 0 0.68 0 0 Z " fill="#3E83E2" transform="translate(579,485)"/>
<path d="M0 0 C3 1 3 1 3 1 Z " fill="#3E85E6" transform="translate(852,480)"/>
<path d="M0 0 C3 1 3 1 3 1 Z " fill="#3F83E2" transform="translate(641,477)"/>
<path d="" fill="#4286E3" transform="translate(0,0)"/>
<path d="M0 0 C3 1 3 1 3 1 Z " fill="#427FD6" transform="translate(712,443)"/>
<path d="M0 0 C2 1 2 1 2 1 Z " fill="#427ED4" transform="translate(125,580)"/>
<path d="" fill="#427FD6" transform="translate(0,0)"/>
<path d="" fill="#4181D8" transform="translate(0,0)"/>
<path d="" fill="#4184E0" transform="translate(0,0)"/>
<path d="" fill="#4587E3" transform="translate(0,0)"/>
<path d="" fill="#3F83E2" transform="translate(0,0)"/>
<path d="M0 0 C2 1 2 1 2 1 Z " fill="#3F83E3" transform="translate(726,499)"/>
<path d="" fill="#4281D8" transform="translate(0,0)"/>
<path d="M0 0 C2 1 2 1 2 1 Z " fill="#4187E7" transform="translate(176,482)"/>
<path d="M0 0 C2 1 2 1 2 1 Z " fill="#3F86E3" transform="translate(843,481)"/>
<path d="" fill="#4186E7" transform="translate(0,0)"/>
<path d="M0 0 C2 1 2 1 2 1 Z " fill="#3E8AE9" transform="translate(859,480)"/>
<path d="M0 0 C2 1 2 1 2 1 Z " fill="#418AE8" transform="translate(856,480)"/>
<path d="M0 0 C2 1 2 1 2 1 Z " fill="#4186E5" transform="translate(848,480)"/>
<path d="M0 0 C2 1 2 1 2 1 Z " fill="#3D86E5" transform="translate(524,480)"/>
<path d="M0 0 C2 1 2 1 2 1 Z " fill="#427FDE" transform="translate(676,479)"/>
<path d="" fill="#4488E7" transform="translate(0,0)"/>
<path d="" fill="#4384E1" transform="translate(0,0)"/>
<path d="" fill="#3F82DD" transform="translate(0,0)"/>
<path d="" fill="#4086E6" transform="translate(0,0)"/>
<path d="M0 0 C2 1 2 1 2 1 Z " fill="#3E83E4" transform="translate(183,462)"/>
<path d="M0 0 C2 1 2 1 2 1 Z " fill="#4083E2" transform="translate(161,461)"/>
<path d="" fill="#3E89E7" transform="translate(0,0)"/>
<path d="" fill="#4385DD" transform="translate(0,0)"/>
<path d="M0 0 C2 1 2 1 2 1 Z " fill="#4480D4" transform="translate(722,444)"/>
<path d="" fill="#4280D6" transform="translate(0,0)"/>
<path d="" fill="#4184DF" transform="translate(0,0)"/>
<path d="M0 0 C2 1 2 1 2 1 Z " fill="#3E83E1" transform="translate(168,383)"/>
<path d="M0 0 C2 1 2 1 2 1 Z " fill="#3D7FDD" transform="translate(225,379)"/>
<path d="M0 0 C2 1 2 1 2 1 Z " fill="#4182D9" transform="translate(137,376)"/>
<path d="" fill="#447BC6" transform="translate(0,0)"/>
<path d="" fill="#477BC5" transform="translate(0,0)"/>
<path d="" fill="#437DCF" transform="translate(0,0)"/>
<path d="" fill="#4780D3" transform="translate(0,0)"/>
<path d="" fill="#4184E0" transform="translate(0,0)"/>
<path d="" fill="#4085E2" transform="translate(0,0)"/>
<path d="" fill="#4287E1" transform="translate(0,0)"/>
<path d="" fill="#4580D5" transform="translate(0,0)"/>
<path d="" fill="#4481D5" transform="translate(0,0)"/>
<path d="" fill="#417FD6" transform="translate(0,0)"/>
<path d="" fill="#4181D9" transform="translate(0,0)"/>
<path d="" fill="#3F7FDD" transform="translate(0,0)"/>
<path d="" fill="#447ED2" transform="translate(0,0)"/>
<path d="" fill="#4282DA" transform="translate(0,0)"/>
<path d="" fill="#3F7FD8" transform="translate(0,0)"/>
<path d="" fill="#4083DE" transform="translate(0,0)"/>
<path d="" fill="#4181D7" transform="translate(0,0)"/>
<path d="" fill="#4182DD" transform="translate(0,0)"/>
<path d="" fill="#4186E3" transform="translate(0,0)"/>
<path d="" fill="#4280DB" transform="translate(0,0)"/>
<path d="" fill="#4081DB" transform="translate(0,0)"/>
<path d="" fill="#4180D6" transform="translate(0,0)"/>
<path d="" fill="#4482D3" transform="translate(0,0)"/>
<path d="" fill="#4080D7" transform="translate(0,0)"/>
<path d="" fill="#4280DF" transform="translate(0,0)"/>
<path d="" fill="#4480D8" transform="translate(0,0)"/>
<path d="" fill="#4382DB" transform="translate(0,0)"/>
<path d="" fill="#4181DF" transform="translate(0,0)"/>
<path d="" fill="#4280D6" transform="translate(0,0)"/>
<path d="" fill="#4282DA" transform="translate(0,0)"/>
<path d="" fill="#3E7CD7" transform="translate(0,0)"/>
<path d="" fill="#407FDA" transform="translate(0,0)"/>
<path d="" fill="#4387E5" transform="translate(0,0)"/>
<path d="" fill="#4183DF" transform="translate(0,0)"/>
<path d="" fill="#3E7FD8" transform="translate(0,0)"/>
<path d="" fill="#4185E1" transform="translate(0,0)"/>
<path d="" fill="#4181DA" transform="translate(0,0)"/>
<path d="" fill="#4082DF" transform="translate(0,0)"/>
<path d="" fill="#4180DB" transform="translate(0,0)"/>
<path d="" fill="#3F7EDA" transform="translate(0,0)"/>
<path d="" fill="#427FD9" transform="translate(0,0)"/>
<path d="" fill="#4181D9" transform="translate(0,0)"/>
<path d="" fill="#4183DB" transform="translate(0,0)"/>
<path d="" fill="#3F81DB" transform="translate(0,0)"/>
<path d="" fill="#3C83E0" transform="translate(0,0)"/>
<path d="" fill="#4483DA" transform="translate(0,0)"/>
<path d="" fill="#3F82DA" transform="translate(0,0)"/>
<path d="" fill="#4084E1" transform="translate(0,0)"/>
<path d="" fill="#3F80DA" transform="translate(0,0)"/>
<path d="" fill="#4082DA" transform="translate(0,0)"/>
<path d="" fill="#4385E4" transform="translate(0,0)"/>
<path d="" fill="#4084E1" transform="translate(0,0)"/>
<path d="" fill="#4185E3" transform="translate(0,0)"/>
<path d="" fill="#4286E3" transform="translate(0,0)"/>
<path d="" fill="#3E85E2" transform="translate(0,0)"/>
<path d="" fill="#3B80D9" transform="translate(0,0)"/>
<path d="" fill="#4085E7" transform="translate(0,0)"/>
<path d="" fill="#3F86E8" transform="translate(0,0)"/>
<path d="" fill="#3F86E5" transform="translate(0,0)"/>
<path d="" fill="#3F84E5" transform="translate(0,0)"/>
<path d="" fill="#4382DB" transform="translate(0,0)"/>
<path d="" fill="#3F83E3" transform="translate(0,0)"/>
<path d="" fill="#3F83E5" transform="translate(0,0)"/>
<path d="" fill="#3D88E9" transform="translate(0,0)"/>
<path d="" fill="#4086E5" transform="translate(0,0)"/>
<path d="" fill="#4283DD" transform="translate(0,0)"/>
<path d="" fill="#4384D9" transform="translate(0,0)"/>
<path d="" fill="#4386E8" transform="translate(0,0)"/>
<path d="" fill="#3F82E0" transform="translate(0,0)"/>
<path d="" fill="#3F83DD" transform="translate(0,0)"/>
<path d="" fill="#4083DE" transform="translate(0,0)"/>
<path d="" fill="#4188E1" transform="translate(0,0)"/>
<path d="" fill="#4384DF" transform="translate(0,0)"/>
<path d="" fill="#3E83E5" transform="translate(0,0)"/>
<path d="" fill="#3F87E5" transform="translate(0,0)"/>
<path d="" fill="#4487E6" transform="translate(0,0)"/>
<path d="" fill="#3E81E0" transform="translate(0,0)"/>
<path d="" fill="#3F81DE" transform="translate(0,0)"/>
<path d="" fill="#4183E4" transform="translate(0,0)"/>
<path d="" fill="#3D82E0" transform="translate(0,0)"/>
<path d="" fill="#4285E6" transform="translate(0,0)"/>
<path d="" fill="#4187E8" transform="translate(0,0)"/>
<path d="" fill="#4084E3" transform="translate(0,0)"/>
<path d="" fill="#3F87E7" transform="translate(0,0)"/>
<path d="" fill="#4284E2" transform="translate(0,0)"/>
<path d="" fill="#3F85E8" transform="translate(0,0)"/>
<path d="" fill="#4083E3" transform="translate(0,0)"/>
<path d="" fill="#4082E2" transform="translate(0,0)"/>
<path d="" fill="#3E84E5" transform="translate(0,0)"/>
<path d="" fill="#4288E7" transform="translate(0,0)"/>
<path d="" fill="#3E83E1" transform="translate(0,0)"/>
<path d="" fill="#4184EB" transform="translate(0,0)"/>
<path d="" fill="#4185E4" transform="translate(0,0)"/>
<path d="" fill="#4083E1" transform="translate(0,0)"/>
<path d="" fill="#4183DE" transform="translate(0,0)"/>
<path d="" fill="#4385DF" transform="translate(0,0)"/>
<path d="" fill="#4489E8" transform="translate(0,0)"/>
<path d="" fill="#3F84E3" transform="translate(0,0)"/>
<path d="" fill="#4083E3" transform="translate(0,0)"/>
<path d="" fill="#4288E9" transform="translate(0,0)"/>
<path d="" fill="#4285E4" transform="translate(0,0)"/>
<path d="" fill="#4187E7" transform="translate(0,0)"/>
<path d="" fill="#4086E9" transform="translate(0,0)"/>
<path d="" fill="#3F85E1" transform="translate(0,0)"/>
<path d="" fill="#4183DE" transform="translate(0,0)"/>
<path d="" fill="#4085E2" transform="translate(0,0)"/>
<path d="" fill="#3E82E0" transform="translate(0,0)"/>
<path d="" fill="#4082E3" transform="translate(0,0)"/>
<path d="" fill="#4082DF" transform="translate(0,0)"/>
<path d="" fill="#3F88E6" transform="translate(0,0)"/>
<path d="" fill="#3E84E3" transform="translate(0,0)"/>
<path d="" fill="#4283DE" transform="translate(0,0)"/>
<path d="" fill="#4085E6" transform="translate(0,0)"/>
<path d="" fill="#4285E3" transform="translate(0,0)"/>
<path d="" fill="#4384E2" transform="translate(0,0)"/>
<path d="" fill="#3E86EB" transform="translate(0,0)"/>
<path d="" fill="#4183E3" transform="translate(0,0)"/>
<path d="" fill="#4183E3" transform="translate(0,0)"/>
<path d="" fill="#4187E0" transform="translate(0,0)"/>
<path d="" fill="#4185E2" transform="translate(0,0)"/>
<path d="" fill="#3E85E7" transform="translate(0,0)"/>
<path d="" fill="#4282D5" transform="translate(0,0)"/>
<path d="" fill="#4080DA" transform="translate(0,0)"/>
<path d="" fill="#3D81DF" transform="translate(0,0)"/>
<path d="" fill="#4388E7" transform="translate(0,0)"/>
<path d="" fill="#4084E3" transform="translate(0,0)"/>
<path d="" fill="#3F83E3" transform="translate(0,0)"/>
<path d="" fill="#3E85E1" transform="translate(0,0)"/>
<path d="" fill="#3E85E5" transform="translate(0,0)"/>
<path d="" fill="#4185E4" transform="translate(0,0)"/>
<path d="" fill="#3F84E2" transform="translate(0,0)"/>
<path d="" fill="#3E83E2" transform="translate(0,0)"/>
<path d="" fill="#408CE9" transform="translate(0,0)"/>
<path d="" fill="#3E87E7" transform="translate(0,0)"/>
<path d="" fill="#3F88E3" transform="translate(0,0)"/>
<path d="" fill="#3E86E2" transform="translate(0,0)"/>
<path d="" fill="#4085E4" transform="translate(0,0)"/>
<path d="" fill="#458FE9" transform="translate(0,0)"/>
<path d="" fill="#4284DF" transform="translate(0,0)"/>
<path d="" fill="#3B82E2" transform="translate(0,0)"/>
<path d="" fill="#4086E0" transform="translate(0,0)"/>
<path d="" fill="#4389E7" transform="translate(0,0)"/>
<path d="" fill="#407EE0" transform="translate(0,0)"/>
<path d="" fill="#407FDA" transform="translate(0,0)"/>
<path d="" fill="#4184E6" transform="translate(0,0)"/>
<path d="" fill="#4287E3" transform="translate(0,0)"/>
<path d="" fill="#4486E3" transform="translate(0,0)"/>
<path d="" fill="#4187E5" transform="translate(0,0)"/>
<path d="" fill="#3F82DE" transform="translate(0,0)"/>
<path d="" fill="#4085E4" transform="translate(0,0)"/>
<path d="" fill="#4285E3" transform="translate(0,0)"/>
<path d="" fill="#4186E6" transform="translate(0,0)"/>
<path d="" fill="#4386E5" transform="translate(0,0)"/>
<path d="" fill="#3F86EC" transform="translate(0,0)"/>
<path d="" fill="#4287E4" transform="translate(0,0)"/>
<path d="" fill="#4085E9" transform="translate(0,0)"/>
<path d="" fill="#3E84DE" transform="translate(0,0)"/>
<path d="" fill="#4086E5" transform="translate(0,0)"/>
<path d="" fill="#3F84E3" transform="translate(0,0)"/>
<path d="" fill="#4187E8" transform="translate(0,0)"/>
<path d="" fill="#3E82E3" transform="translate(0,0)"/>
<path d="" fill="#4386E4" transform="translate(0,0)"/>
<path d="" fill="#407ED7" transform="translate(0,0)"/>
<path d="" fill="#4487EA" transform="translate(0,0)"/>
<path d="" fill="#448EE9" transform="translate(0,0)"/>
<path d="" fill="#4187E7" transform="translate(0,0)"/>
<path d="" fill="#3E85E7" transform="translate(0,0)"/>
<path d="" fill="#4187E7" transform="translate(0,0)"/>
<path d="" fill="#4081DD" transform="translate(0,0)"/>
<path d="" fill="#3D81DC" transform="translate(0,0)"/>
<path d="" fill="#3E83E6" transform="translate(0,0)"/>
<path d="" fill="#3F83E3" transform="translate(0,0)"/>
<path d="" fill="#3E82E5" transform="translate(0,0)"/>
<path d="" fill="#4385E4" transform="translate(0,0)"/>
<path d="" fill="#4084E2" transform="translate(0,0)"/>
<path d="" fill="#3F82DA" transform="translate(0,0)"/>
<path d="" fill="#458AE7" transform="translate(0,0)"/>
<path d="" fill="#3F83E1" transform="translate(0,0)"/>
<path d="" fill="#3E80E3" transform="translate(0,0)"/>
<path d="" fill="#4083E6" transform="translate(0,0)"/>
<path d="" fill="#4085E3" transform="translate(0,0)"/>
<path d="" fill="#4083E5" transform="translate(0,0)"/>
<path d="" fill="#4185E5" transform="translate(0,0)"/>
<path d="" fill="#4081DC" transform="translate(0,0)"/>
<path d="" fill="#4085E2" transform="translate(0,0)"/>
<path d="" fill="#4384DF" transform="translate(0,0)"/>
<path d="" fill="#4388E6" transform="translate(0,0)"/>
<path d="" fill="#4386E6" transform="translate(0,0)"/>
<path d="" fill="#4087E5" transform="translate(0,0)"/>
<path d="" fill="#4488E7" transform="translate(0,0)"/>
<path d="" fill="#4282DA" transform="translate(0,0)"/>
<path d="" fill="#4283DF" transform="translate(0,0)"/>
<path d="" fill="#4185E5" transform="translate(0,0)"/>
<path d="" fill="#4082DC" transform="translate(0,0)"/>
<path d="" fill="#458AE8" transform="translate(0,0)"/>
<path d="" fill="#4589E6" transform="translate(0,0)"/>
<path d="" fill="#4080DF" transform="translate(0,0)"/>
<path d="" fill="#3E7FD2" transform="translate(0,0)"/>
<path d="" fill="#3D84E3" transform="translate(0,0)"/>
<path d="" fill="#4283DF" transform="translate(0,0)"/>
<path d="" fill="#3F81DD" transform="translate(0,0)"/>
<path d="" fill="#4081DD" transform="translate(0,0)"/>
<path d="" fill="#3C82E2" transform="translate(0,0)"/>
<path d="" fill="#4283DC" transform="translate(0,0)"/>
<path d="" fill="#4281DA" transform="translate(0,0)"/>
<path d="" fill="#4481DA" transform="translate(0,0)"/>
<path d="" fill="#4386E5" transform="translate(0,0)"/>
<path d="" fill="#4185E1" transform="translate(0,0)"/>
<path d="" fill="#4086DD" transform="translate(0,0)"/>
<path d="" fill="#4488E2" transform="translate(0,0)"/>
<path d="" fill="#4182DB" transform="translate(0,0)"/>
<path d="" fill="#4082DD" transform="translate(0,0)"/>
<path d="" fill="#3F86E6" transform="translate(0,0)"/>
<path d="" fill="#4181DB" transform="translate(0,0)"/>
<path d="" fill="#4283E0" transform="translate(0,0)"/>
<path d="" fill="#4383DD" transform="translate(0,0)"/>
<path d="" fill="#3D85E3" transform="translate(0,0)"/>
<path d="" fill="#4087E7" transform="translate(0,0)"/>
<path d="" fill="#4386E3" transform="translate(0,0)"/>
<path d="" fill="#437FD6" transform="translate(0,0)"/>
<path d="" fill="#4482D6" transform="translate(0,0)"/>
<path d="" fill="#4385E0" transform="translate(0,0)"/>
<path d="" fill="#4380D6" transform="translate(0,0)"/>
<path d="" fill="#4381D7" transform="translate(0,0)"/>
<path d="" fill="#437FD7" transform="translate(0,0)"/>
<path d="" fill="#437FD9" transform="translate(0,0)"/>
<path d="" fill="#4482D8" transform="translate(0,0)"/>
<path d="" fill="#4087E6" transform="translate(0,0)"/>
<path d="" fill="#3E84E6" transform="translate(0,0)"/>
<path d="" fill="#3F82E0" transform="translate(0,0)"/>
<path d="" fill="#4484E1" transform="translate(0,0)"/>
<path d="" fill="#4283DE" transform="translate(0,0)"/>
<path d="" fill="#4386E5" transform="translate(0,0)"/>
<path d="" fill="#4180D8" transform="translate(0,0)"/>
<path d="" fill="#408AEB" transform="translate(0,0)"/>
<path d="" fill="#4080D8" transform="translate(0,0)"/>
<path d="" fill="#3F7ED8" transform="translate(0,0)"/>
<path d="" fill="#4584DF" transform="translate(0,0)"/>
<path d="" fill="#4384E1" transform="translate(0,0)"/>
<path d="" fill="#4181DD" transform="translate(0,0)"/>
<path d="" fill="#4280D6" transform="translate(0,0)"/>
<path d="" fill="#4187EA" transform="translate(0,0)"/>
<path d="" fill="#3C80D8" transform="translate(0,0)"/>
<path d="" fill="#3E84E1" transform="translate(0,0)"/>
<path d="" fill="#3E82DA" transform="translate(0,0)"/>
<path d="" fill="#4280D2" transform="translate(0,0)"/>
<path d="" fill="#4582D5" transform="translate(0,0)"/>
<path d="" fill="#4282DB" transform="translate(0,0)"/>
<path d="" fill="#4283E4" transform="translate(0,0)"/>
<path d="" fill="#4780D1" transform="translate(0,0)"/>
<path d="" fill="#4581D4" transform="translate(0,0)"/>
<path d="" fill="#4481D3" transform="translate(0,0)"/>
<path d="" fill="#457CCE" transform="translate(0,0)"/>
<path d="" fill="#437FCF" transform="translate(0,0)"/>
<path d="" fill="#4187E1" transform="translate(0,0)"/>
<path d="" fill="#447BCC" transform="translate(0,0)"/>
<path d="" fill="#4381DD" transform="translate(0,0)"/>
<path d="" fill="#4383E0" transform="translate(0,0)"/>
<path d="" fill="#4488E3" transform="translate(0,0)"/>
<path d="" fill="#4584D6" transform="translate(0,0)"/>
<path d="" fill="#3F80DC" transform="translate(0,0)"/>
<path d="" fill="#4588E6" transform="translate(0,0)"/>
<path d="" fill="#3E82DD" transform="translate(0,0)"/>
<path d="" fill="#3F85E2" transform="translate(0,0)"/>
<path d="" fill="#4485E4" transform="translate(0,0)"/>
<path d="" fill="#4386E1" transform="translate(0,0)"/>
<path d="" fill="#4086DF" transform="translate(0,0)"/>
<path d="" fill="#3F85E6" transform="translate(0,0)"/>
<path d="" fill="#4084E3" transform="translate(0,0)"/>
<path d="" fill="#4482D5" transform="translate(0,0)"/>
<path d="" fill="#4380DB" transform="translate(0,0)"/>
<path d="" fill="#4384E3" transform="translate(0,0)"/>
<path d="" fill="#4182E2" transform="translate(0,0)"/>
<path d="" fill="#4484DC" transform="translate(0,0)"/>
<path d="" fill="#3F7ED9" transform="translate(0,0)"/>
<path d="" fill="#4280D8" transform="translate(0,0)"/>
<path d="" fill="#4280D5" transform="translate(0,0)"/>
<path d="" fill="#427FD6" transform="translate(0,0)"/>
<path d="" fill="#407ED4" transform="translate(0,0)"/>
<path d="" fill="#4380DC" transform="translate(0,0)"/>
<path d="" fill="#4383DB" transform="translate(0,0)"/>
<path d="" fill="#4282DF" transform="translate(0,0)"/>
<path d="" fill="#3E80D8" transform="translate(0,0)"/>
<path d="" fill="#4482D9" transform="translate(0,0)"/>
<path d="" fill="#427ED2" transform="translate(0,0)"/>
</svg>
